%TF.GenerationSoftware,KiCad,Pcbnew,9.0.4*%
%TF.CreationDate,2025-12-18T16:12:58-05:00*%
%TF.ProjectId,ECET230 Smart Plant Monitor,45434554-3233-4302-9053-6d6172742050,rev?*%
%TF.SameCoordinates,Original*%
%TF.FileFunction,Soldermask,Top*%
%TF.FilePolarity,Negative*%
%FSLAX46Y46*%
G04 Gerber Fmt 4.6, Leading zero omitted, Abs format (unit mm)*
G04 Created by KiCad (PCBNEW 9.0.4) date 2025-12-18 16:12:58*
%MOMM*%
%LPD*%
G01*
G04 APERTURE LIST*
G04 Aperture macros list*
%AMRoundRect*
0 Rectangle with rounded corners*
0 $1 Rounding radius*
0 $2 $3 $4 $5 $6 $7 $8 $9 X,Y pos of 4 corners*
0 Add a 4 corners polygon primitive as box body*
4,1,4,$2,$3,$4,$5,$6,$7,$8,$9,$2,$3,0*
0 Add four circle primitives for the rounded corners*
1,1,$1+$1,$2,$3*
1,1,$1+$1,$4,$5*
1,1,$1+$1,$6,$7*
1,1,$1+$1,$8,$9*
0 Add four rect primitives between the rounded corners*
20,1,$1+$1,$2,$3,$4,$5,0*
20,1,$1+$1,$4,$5,$6,$7,0*
20,1,$1+$1,$6,$7,$8,$9,0*
20,1,$1+$1,$8,$9,$2,$3,0*%
G04 Aperture macros list end*
%ADD10R,1.700000X1.700000*%
%ADD11C,1.700000*%
%ADD12R,1.500000X1.500000*%
%ADD13C,1.500000*%
%ADD14RoundRect,0.190000X0.190000X-0.610000X0.190000X0.610000X-0.190000X0.610000X-0.190000X-0.610000X0*%
%ADD15C,2.100000*%
%ADD16C,1.600000*%
%ADD17R,1.600000X2.200000*%
%ADD18C,0.700000*%
%ADD19O,2.400000X0.900000*%
%ADD20O,1.700000X0.900000*%
%ADD21R,1.100000X2.000000*%
%ADD22C,6.500000*%
%ADD23R,1.500000X3.000000*%
%ADD24O,1.500000X3.000000*%
%ADD25R,2.000000X2.000000*%
%ADD26C,1.000000*%
%ADD27O,3.000000X2.500000*%
%ADD28RoundRect,0.075000X0.662500X0.075000X-0.662500X0.075000X-0.662500X-0.075000X0.662500X-0.075000X0*%
%ADD29RoundRect,0.075000X0.075000X0.662500X-0.075000X0.662500X-0.075000X-0.662500X0.075000X-0.662500X0*%
%ADD30R,1.950000X0.500000*%
%ADD31C,2.374900*%
%ADD32C,0.990600*%
%ADD33C,0.787400*%
%ADD34R,0.850000X0.850000*%
%ADD35C,0.850000*%
%ADD36C,1.440000*%
G04 APERTURE END LIST*
D10*
%TO.C,J4*%
X141725000Y-148100000D03*
D11*
X144265000Y-148100000D03*
X146805000Y-148100000D03*
%TD*%
D12*
%TO.C,U1*%
X90540000Y-23000000D03*
D13*
X88000000Y-23000000D03*
X85460000Y-23000000D03*
X82920000Y-23000000D03*
%TD*%
D14*
%TO.C,SW1*%
X66000000Y-66080000D03*
X66000000Y-61000000D03*
%TD*%
D15*
%TO.C,H4*%
X239000000Y-155000000D03*
%TD*%
%TO.C,H1*%
X69000000Y-23000000D03*
%TD*%
D16*
%TO.C,R3*%
X230000000Y-31300000D03*
X230000000Y-44000000D03*
%TD*%
D17*
%TO.C,C2*%
X197000000Y-89000000D03*
X197000000Y-92000000D03*
%TD*%
D18*
%TO.C,J5*%
X69350000Y-72600000D03*
X69350000Y-73450000D03*
X69350000Y-74300000D03*
X69350000Y-75150000D03*
X69350000Y-76000000D03*
X69350000Y-76850000D03*
X69350000Y-77700000D03*
X69350000Y-78550000D03*
X68000000Y-78550000D03*
X68000000Y-77700000D03*
X68000000Y-76850000D03*
X68000000Y-76000000D03*
X68000000Y-75150000D03*
X68000000Y-74300000D03*
X68000000Y-73450000D03*
X68000000Y-72600000D03*
D19*
X68370000Y-71250000D03*
D20*
X64990000Y-71250000D03*
D19*
X68370000Y-79900000D03*
D20*
X64990000Y-79900000D03*
%TD*%
D21*
%TO.C,D1*%
X228700000Y-22600000D03*
X227000000Y-22600000D03*
X225300000Y-22600000D03*
X225300000Y-27400000D03*
X227000000Y-27400000D03*
X228700000Y-27400000D03*
%TD*%
D17*
%TO.C,C9*%
X163000000Y-90000000D03*
X163000000Y-87000000D03*
%TD*%
D15*
%TO.C,H3*%
X69000000Y-156000000D03*
%TD*%
D22*
%TO.C,U2*%
X97730000Y-25770000D03*
X97730000Y-62770000D03*
X212730000Y-25770000D03*
X212730000Y-62770000D03*
D23*
X172230000Y-24770000D03*
D24*
X174770000Y-24770000D03*
X177310000Y-24770000D03*
X179850000Y-24770000D03*
X182390000Y-24770000D03*
X184930000Y-24770000D03*
X187470000Y-24770000D03*
X190010000Y-24770000D03*
X192550000Y-24770000D03*
X195090000Y-24770000D03*
X197630000Y-24770000D03*
X200170000Y-24770000D03*
X202710000Y-24770000D03*
X205250000Y-24770000D03*
X169690000Y-24770000D03*
X167150000Y-24770000D03*
D25*
X96730000Y-38770000D03*
X96730000Y-49770000D03*
X96730000Y-42770000D03*
X96730000Y-53770000D03*
%TD*%
D16*
%TO.C,R8*%
X79000000Y-82920000D03*
X79000000Y-93080000D03*
%TD*%
D26*
%TO.C,Y2*%
X165755000Y-94730000D03*
X165755000Y-97270000D03*
%TD*%
D27*
%TO.C,SW2*%
X201750000Y-72500000D03*
X214250000Y-72500000D03*
X201750000Y-77500000D03*
X214250000Y-77500000D03*
%TD*%
D28*
%TO.C,U3*%
X191662500Y-106000000D03*
X191662500Y-105500000D03*
X191662500Y-105000000D03*
X191662500Y-104500000D03*
X191662500Y-104000000D03*
X191662500Y-103500000D03*
X191662500Y-103000000D03*
X191662500Y-102500000D03*
X191662500Y-102000000D03*
X191662500Y-101500000D03*
X191662500Y-101000000D03*
X191662500Y-100500000D03*
X191662500Y-100000000D03*
X191662500Y-99500000D03*
X191662500Y-99000000D03*
X191662500Y-98500000D03*
X191662500Y-98000000D03*
X191662500Y-97500000D03*
X191662500Y-97000000D03*
X191662500Y-96500000D03*
X191662500Y-96000000D03*
X191662500Y-95500000D03*
X191662500Y-95000000D03*
X191662500Y-94500000D03*
X191662500Y-94000000D03*
D29*
X190000000Y-92337500D03*
X189500000Y-92337500D03*
X189000000Y-92337500D03*
X188500000Y-92337500D03*
X188000000Y-92337500D03*
X187500000Y-92337500D03*
X187000000Y-92337500D03*
X186500000Y-92337500D03*
X186000000Y-92337500D03*
X185500000Y-92337500D03*
X185000000Y-92337500D03*
X184500000Y-92337500D03*
X184000000Y-92337500D03*
X183500000Y-92337500D03*
X183000000Y-92337500D03*
X182500000Y-92337500D03*
X182000000Y-92337500D03*
X181500000Y-92337500D03*
X181000000Y-92337500D03*
X180500000Y-92337500D03*
X180000000Y-92337500D03*
X179500000Y-92337500D03*
X179000000Y-92337500D03*
X178500000Y-92337500D03*
X178000000Y-92337500D03*
D28*
X176337500Y-94000000D03*
X176337500Y-94500000D03*
X176337500Y-95000000D03*
X176337500Y-95500000D03*
X176337500Y-96000000D03*
X176337500Y-96500000D03*
X176337500Y-97000000D03*
X176337500Y-97500000D03*
X176337500Y-98000000D03*
X176337500Y-98500000D03*
X176337500Y-99000000D03*
X176337500Y-99500000D03*
X176337500Y-100000000D03*
X176337500Y-100500000D03*
X176337500Y-101000000D03*
X176337500Y-101500000D03*
X176337500Y-102000000D03*
X176337500Y-102500000D03*
X176337500Y-103000000D03*
X176337500Y-103500000D03*
X176337500Y-104000000D03*
X176337500Y-104500000D03*
X176337500Y-105000000D03*
X176337500Y-105500000D03*
X176337500Y-106000000D03*
D29*
X178000000Y-107662500D03*
X178500000Y-107662500D03*
X179000000Y-107662500D03*
X179500000Y-107662500D03*
X180000000Y-107662500D03*
X180500000Y-107662500D03*
X181000000Y-107662500D03*
X181500000Y-107662500D03*
X182000000Y-107662500D03*
X182500000Y-107662500D03*
X183000000Y-107662500D03*
X183500000Y-107662500D03*
X184000000Y-107662500D03*
X184500000Y-107662500D03*
X185000000Y-107662500D03*
X185500000Y-107662500D03*
X186000000Y-107662500D03*
X186500000Y-107662500D03*
X187000000Y-107662500D03*
X187500000Y-107662500D03*
X188000000Y-107662500D03*
X188500000Y-107662500D03*
X189000000Y-107662500D03*
X189500000Y-107662500D03*
X190000000Y-107662500D03*
%TD*%
D16*
%TO.C,R7*%
X74000000Y-82920000D03*
X74000000Y-93080000D03*
%TD*%
D30*
%TO.C,J3*%
X201525000Y-106475000D03*
X203475000Y-105475000D03*
X201525000Y-104475000D03*
X203475000Y-103475000D03*
X201525000Y-102475000D03*
X203475000Y-101475000D03*
%TD*%
D17*
%TO.C,C1*%
X204000000Y-89000000D03*
X204000000Y-92000000D03*
%TD*%
%TO.C,C7*%
X139000000Y-90000000D03*
X139000000Y-87000000D03*
%TD*%
D27*
%TO.C,SW3*%
X149750000Y-72500000D03*
X162250000Y-72500000D03*
X149750000Y-77500000D03*
X162250000Y-77500000D03*
%TD*%
D17*
%TO.C,C8*%
X146000000Y-90000000D03*
X146000000Y-87000000D03*
%TD*%
%TO.C,C10*%
X170000000Y-90000000D03*
X170000000Y-87000000D03*
%TD*%
D16*
%TO.C,R2*%
X184000000Y-114650000D03*
X184000000Y-127350000D03*
%TD*%
D31*
%TO.C,J2*%
X218080000Y-100825000D03*
D32*
X215540000Y-100825000D03*
D31*
X213000000Y-100825000D03*
X218080000Y-104000000D03*
X213000000Y-104000000D03*
D32*
X216556000Y-105905000D03*
X214524000Y-105905000D03*
D33*
X214905000Y-102095000D03*
X216175000Y-102095000D03*
X214905000Y-103365000D03*
X216175000Y-103365000D03*
X214905000Y-104635000D03*
X216175000Y-104635000D03*
%TD*%
D17*
%TO.C,C6*%
X132000000Y-90000000D03*
X132000000Y-87000000D03*
%TD*%
D34*
%TO.C,J1*%
X149000000Y-132000000D03*
D35*
X148000000Y-132000000D03*
X147000000Y-132000000D03*
X146000000Y-132000000D03*
X145000000Y-132000000D03*
X144000000Y-132000000D03*
X143000000Y-132000000D03*
X142000000Y-132000000D03*
%TD*%
D16*
%TO.C,R6*%
X178080000Y-81000000D03*
X167920000Y-81000000D03*
%TD*%
%TO.C,R5*%
X222000000Y-31300000D03*
X222000000Y-44000000D03*
%TD*%
D15*
%TO.C,H2*%
X239000000Y-25000000D03*
%TD*%
D36*
%TO.C,RV1*%
X70000000Y-30000000D03*
X67460000Y-32540000D03*
X70000000Y-35080000D03*
%TD*%
D16*
%TO.C,R4*%
X226000000Y-31300000D03*
X226000000Y-44000000D03*
%TD*%
%TO.C,R1*%
X77000000Y-32700000D03*
X77000000Y-20000000D03*
%TD*%
M02*
