M48
; DRILL file {KiCad 9.0.4} date 2025-12-18T16:16:21-0500
; FORMAT={-:-/ absolute / metric / decimal}
; #@! TF.CreationDate,2025-12-18T16:16:21-05:00
; #@! TF.GenerationSoftware,Kicad,Pcbnew,9.0.4
; #@! TF.FileFunction,MixedPlating,1,2
FMAT,2
METRIC
; #@! TA.AperFunction,Plated,PTH,ViaDrill
T1C0.300
; #@! TA.AperFunction,Plated,PTH,ComponentDrill
T2C0.400
; #@! TA.AperFunction,Plated,PTH,ComponentDrill
T3C0.500
; #@! TA.AperFunction,Plated,PTH,ComponentDrill
T4C0.600
; #@! TA.AperFunction,Plated,PTH,ComponentDrill
T5C0.800
; #@! TA.AperFunction,Plated,PTH,ComponentDrill
T6C1.000
; #@! TA.AperFunction,Plated,PTH,ComponentDrill
T7C1.200
; #@! TA.AperFunction,Plated,PTH,ComponentDrill
T8C3.500
; #@! TA.AperFunction,NonPlated,NPTH,ComponentDrill
T9C0.991
; #@! TA.AperFunction,NonPlated,NPTH,ComponentDrill
T10C2.100
; #@! TA.AperFunction,NonPlated,NPTH,ComponentDrill
T11C2.375
%
G90
G05
T1
X67.0Y-58.0
X68.0Y-70.0
X70.0Y-38.0
X83.0Y-28.0
X87.0Y-68.0
X146.0Y-85.0
X147.0Y-73.0
X147.0Y-146.0
X149.0Y-103.0
X149.0Y-107.0
X161.0Y-91.0
X165.0Y-90.0
X167.0Y-28.0
X168.0Y-90.0
X169.0Y-70.0
X169.0Y-83.0
X178.0Y-83.0
X179.0Y-99.052
X181.0Y-94.0
X182.0Y-23.0
X182.0Y-95.0
X183.0Y-95.0
X183.0Y-99.0
X184.0Y-95.0
X185.0Y-95.0
X186.0Y-95.0
X187.0Y-81.0
X188.0Y-80.0
X188.0Y-83.0
X189.0Y-79.0
X189.0Y-103.0
X190.0Y-78.0
X191.0Y-77.0
X192.0Y-76.0
X193.0Y-101.0
X195.0Y-98.102
X197.0Y-93.0
X198.0Y-101.0
X200.0Y-78.0
X203.0Y-93.0
X205.0Y-106.0
X208.0Y-91.0
X211.0Y-96.898
X213.0Y-96.0
X214.605Y-103.0
X215.0Y-105.0
X215.117Y-101.795
X216.0Y-96.898
X216.475Y-103.0
X216.915Y-105.079
X225.0Y-29.0
T2
X68.0Y-72.6
X68.0Y-73.45
X68.0Y-74.3
X68.0Y-75.15
X68.0Y-76.0
X68.0Y-76.85
X68.0Y-77.7
X68.0Y-78.55
X69.35Y-72.6
X69.35Y-73.45
X69.35Y-74.3
X69.35Y-75.15
X69.35Y-76.0
X69.35Y-76.85
X69.35Y-77.7
X69.35Y-78.55
T3
X142.0Y-132.0
X143.0Y-132.0
X144.0Y-132.0
X145.0Y-132.0
X146.0Y-132.0
X147.0Y-132.0
X148.0Y-132.0
X149.0Y-132.0
X165.755Y-94.73
X165.755Y-97.27
T5
X67.46Y-32.54
X70.0Y-30.0
X70.0Y-35.08
X74.0Y-82.92
X74.0Y-93.08
X77.0Y-20.0
X77.0Y-32.7
X79.0Y-82.92
X79.0Y-93.08
X82.92Y-23.0
X85.46Y-23.0
X88.0Y-23.0
X90.54Y-23.0
X167.92Y-81.0
X178.08Y-81.0
X184.0Y-114.65
X184.0Y-127.35
X222.0Y-31.3
X222.0Y-44.0
X226.0Y-31.3
X226.0Y-44.0
X230.0Y-31.3
X230.0Y-44.0
T6
X96.73Y-38.77
X96.73Y-42.77
X96.73Y-49.77
X96.73Y-53.77
X141.725Y-148.1
X144.265Y-148.1
X146.805Y-148.1
X167.15Y-24.77
X169.69Y-24.77
X172.23Y-24.77
X174.77Y-24.77
X177.31Y-24.77
X179.85Y-24.77
X182.39Y-24.77
X184.93Y-24.77
X187.47Y-24.77
X190.01Y-24.77
X192.55Y-24.77
X195.09Y-24.77
X197.63Y-24.77
X200.17Y-24.77
X202.71Y-24.77
X205.25Y-24.77
T7
X149.75Y-72.5
X149.75Y-77.5
X162.25Y-72.5
X162.25Y-77.5
X201.75Y-72.5
X201.75Y-77.5
X214.25Y-72.5
X214.25Y-77.5
T8
X97.73Y-25.77
X97.73Y-62.77
X212.73Y-25.77
X212.73Y-62.77
T9
X214.524Y-105.905
X215.54Y-100.825
X216.556Y-105.905
T10
X69.0Y-23.0
X69.0Y-156.0
X239.0Y-25.0
X239.0Y-155.0
T11
X213.0Y-100.825
X213.0Y-104.0
X218.08Y-100.825
X218.08Y-104.0
T4
G00X65.39Y-71.25
M15
G01X64.59Y-71.25
M16
G05
G00X65.39Y-79.9
M15
G01X64.59Y-79.9
M16
G05
G00X69.12Y-71.25
M15
G01X67.62Y-71.25
M16
G05
G00X69.12Y-79.9
M15
G01X67.62Y-79.9
M16
G05
M30
