%TF.GenerationSoftware,KiCad,Pcbnew,9.0.4*%
%TF.CreationDate,2025-12-18T16:13:19-05:00*%
%TF.ProjectId,ECET230 Smart Plant Monitor,45434554-3233-4302-9053-6d6172742050,rev?*%
%TF.SameCoordinates,Original*%
%TF.FileFunction,Legend,Top*%
%TF.FilePolarity,Positive*%
%FSLAX46Y46*%
G04 Gerber Fmt 4.6, Leading zero omitted, Abs format (unit mm)*
G04 Created by KiCad (PCBNEW 9.0.4) date 2025-12-18 16:13:19*
%MOMM*%
%LPD*%
G01*
G04 APERTURE LIST*
%ADD10C,0.100000*%
%ADD11C,0.050000*%
%ADD12C,0.150000*%
%ADD13C,0.120000*%
G04 APERTURE END LIST*
D10*
X151256265Y-157824800D02*
X151399122Y-157872419D01*
X151399122Y-157872419D02*
X151637217Y-157872419D01*
X151637217Y-157872419D02*
X151732455Y-157824800D01*
X151732455Y-157824800D02*
X151780074Y-157777180D01*
X151780074Y-157777180D02*
X151827693Y-157681942D01*
X151827693Y-157681942D02*
X151827693Y-157586704D01*
X151827693Y-157586704D02*
X151780074Y-157491466D01*
X151780074Y-157491466D02*
X151732455Y-157443847D01*
X151732455Y-157443847D02*
X151637217Y-157396228D01*
X151637217Y-157396228D02*
X151446741Y-157348609D01*
X151446741Y-157348609D02*
X151351503Y-157300990D01*
X151351503Y-157300990D02*
X151303884Y-157253371D01*
X151303884Y-157253371D02*
X151256265Y-157158133D01*
X151256265Y-157158133D02*
X151256265Y-157062895D01*
X151256265Y-157062895D02*
X151303884Y-156967657D01*
X151303884Y-156967657D02*
X151351503Y-156920038D01*
X151351503Y-156920038D02*
X151446741Y-156872419D01*
X151446741Y-156872419D02*
X151684836Y-156872419D01*
X151684836Y-156872419D02*
X151827693Y-156920038D01*
X152399122Y-157872419D02*
X152303884Y-157824800D01*
X152303884Y-157824800D02*
X152256265Y-157777180D01*
X152256265Y-157777180D02*
X152208646Y-157681942D01*
X152208646Y-157681942D02*
X152208646Y-157396228D01*
X152208646Y-157396228D02*
X152256265Y-157300990D01*
X152256265Y-157300990D02*
X152303884Y-157253371D01*
X152303884Y-157253371D02*
X152399122Y-157205752D01*
X152399122Y-157205752D02*
X152541979Y-157205752D01*
X152541979Y-157205752D02*
X152637217Y-157253371D01*
X152637217Y-157253371D02*
X152684836Y-157300990D01*
X152684836Y-157300990D02*
X152732455Y-157396228D01*
X152732455Y-157396228D02*
X152732455Y-157681942D01*
X152732455Y-157681942D02*
X152684836Y-157777180D01*
X152684836Y-157777180D02*
X152637217Y-157824800D01*
X152637217Y-157824800D02*
X152541979Y-157872419D01*
X152541979Y-157872419D02*
X152399122Y-157872419D01*
X153161027Y-157872419D02*
X153161027Y-157205752D01*
X153161027Y-156872419D02*
X153113408Y-156920038D01*
X153113408Y-156920038D02*
X153161027Y-156967657D01*
X153161027Y-156967657D02*
X153208646Y-156920038D01*
X153208646Y-156920038D02*
X153161027Y-156872419D01*
X153161027Y-156872419D02*
X153161027Y-156967657D01*
X153780074Y-157872419D02*
X153684836Y-157824800D01*
X153684836Y-157824800D02*
X153637217Y-157729561D01*
X153637217Y-157729561D02*
X153637217Y-156872419D01*
X154922932Y-157872419D02*
X154922932Y-156872419D01*
X154922932Y-156872419D02*
X155256265Y-157586704D01*
X155256265Y-157586704D02*
X155589598Y-156872419D01*
X155589598Y-156872419D02*
X155589598Y-157872419D01*
X156208646Y-157872419D02*
X156113408Y-157824800D01*
X156113408Y-157824800D02*
X156065789Y-157777180D01*
X156065789Y-157777180D02*
X156018170Y-157681942D01*
X156018170Y-157681942D02*
X156018170Y-157396228D01*
X156018170Y-157396228D02*
X156065789Y-157300990D01*
X156065789Y-157300990D02*
X156113408Y-157253371D01*
X156113408Y-157253371D02*
X156208646Y-157205752D01*
X156208646Y-157205752D02*
X156351503Y-157205752D01*
X156351503Y-157205752D02*
X156446741Y-157253371D01*
X156446741Y-157253371D02*
X156494360Y-157300990D01*
X156494360Y-157300990D02*
X156541979Y-157396228D01*
X156541979Y-157396228D02*
X156541979Y-157681942D01*
X156541979Y-157681942D02*
X156494360Y-157777180D01*
X156494360Y-157777180D02*
X156446741Y-157824800D01*
X156446741Y-157824800D02*
X156351503Y-157872419D01*
X156351503Y-157872419D02*
X156208646Y-157872419D01*
X156970551Y-157872419D02*
X156970551Y-157205752D01*
X156970551Y-156872419D02*
X156922932Y-156920038D01*
X156922932Y-156920038D02*
X156970551Y-156967657D01*
X156970551Y-156967657D02*
X157018170Y-156920038D01*
X157018170Y-156920038D02*
X156970551Y-156872419D01*
X156970551Y-156872419D02*
X156970551Y-156967657D01*
X157399122Y-157824800D02*
X157494360Y-157872419D01*
X157494360Y-157872419D02*
X157684836Y-157872419D01*
X157684836Y-157872419D02*
X157780074Y-157824800D01*
X157780074Y-157824800D02*
X157827693Y-157729561D01*
X157827693Y-157729561D02*
X157827693Y-157681942D01*
X157827693Y-157681942D02*
X157780074Y-157586704D01*
X157780074Y-157586704D02*
X157684836Y-157539085D01*
X157684836Y-157539085D02*
X157541979Y-157539085D01*
X157541979Y-157539085D02*
X157446741Y-157491466D01*
X157446741Y-157491466D02*
X157399122Y-157396228D01*
X157399122Y-157396228D02*
X157399122Y-157348609D01*
X157399122Y-157348609D02*
X157446741Y-157253371D01*
X157446741Y-157253371D02*
X157541979Y-157205752D01*
X157541979Y-157205752D02*
X157684836Y-157205752D01*
X157684836Y-157205752D02*
X157780074Y-157253371D01*
X158113408Y-157205752D02*
X158494360Y-157205752D01*
X158256265Y-156872419D02*
X158256265Y-157729561D01*
X158256265Y-157729561D02*
X158303884Y-157824800D01*
X158303884Y-157824800D02*
X158399122Y-157872419D01*
X158399122Y-157872419D02*
X158494360Y-157872419D01*
X159256265Y-157205752D02*
X159256265Y-157872419D01*
X158827694Y-157205752D02*
X158827694Y-157729561D01*
X158827694Y-157729561D02*
X158875313Y-157824800D01*
X158875313Y-157824800D02*
X158970551Y-157872419D01*
X158970551Y-157872419D02*
X159113408Y-157872419D01*
X159113408Y-157872419D02*
X159208646Y-157824800D01*
X159208646Y-157824800D02*
X159256265Y-157777180D01*
X159732456Y-157872419D02*
X159732456Y-157205752D01*
X159732456Y-157396228D02*
X159780075Y-157300990D01*
X159780075Y-157300990D02*
X159827694Y-157253371D01*
X159827694Y-157253371D02*
X159922932Y-157205752D01*
X159922932Y-157205752D02*
X160018170Y-157205752D01*
X160732456Y-157824800D02*
X160637218Y-157872419D01*
X160637218Y-157872419D02*
X160446742Y-157872419D01*
X160446742Y-157872419D02*
X160351504Y-157824800D01*
X160351504Y-157824800D02*
X160303885Y-157729561D01*
X160303885Y-157729561D02*
X160303885Y-157348609D01*
X160303885Y-157348609D02*
X160351504Y-157253371D01*
X160351504Y-157253371D02*
X160446742Y-157205752D01*
X160446742Y-157205752D02*
X160637218Y-157205752D01*
X160637218Y-157205752D02*
X160732456Y-157253371D01*
X160732456Y-157253371D02*
X160780075Y-157348609D01*
X160780075Y-157348609D02*
X160780075Y-157443847D01*
X160780075Y-157443847D02*
X160303885Y-157539085D01*
X161922933Y-157824800D02*
X162065790Y-157872419D01*
X162065790Y-157872419D02*
X162303885Y-157872419D01*
X162303885Y-157872419D02*
X162399123Y-157824800D01*
X162399123Y-157824800D02*
X162446742Y-157777180D01*
X162446742Y-157777180D02*
X162494361Y-157681942D01*
X162494361Y-157681942D02*
X162494361Y-157586704D01*
X162494361Y-157586704D02*
X162446742Y-157491466D01*
X162446742Y-157491466D02*
X162399123Y-157443847D01*
X162399123Y-157443847D02*
X162303885Y-157396228D01*
X162303885Y-157396228D02*
X162113409Y-157348609D01*
X162113409Y-157348609D02*
X162018171Y-157300990D01*
X162018171Y-157300990D02*
X161970552Y-157253371D01*
X161970552Y-157253371D02*
X161922933Y-157158133D01*
X161922933Y-157158133D02*
X161922933Y-157062895D01*
X161922933Y-157062895D02*
X161970552Y-156967657D01*
X161970552Y-156967657D02*
X162018171Y-156920038D01*
X162018171Y-156920038D02*
X162113409Y-156872419D01*
X162113409Y-156872419D02*
X162351504Y-156872419D01*
X162351504Y-156872419D02*
X162494361Y-156920038D01*
X163303885Y-157824800D02*
X163208647Y-157872419D01*
X163208647Y-157872419D02*
X163018171Y-157872419D01*
X163018171Y-157872419D02*
X162922933Y-157824800D01*
X162922933Y-157824800D02*
X162875314Y-157729561D01*
X162875314Y-157729561D02*
X162875314Y-157348609D01*
X162875314Y-157348609D02*
X162922933Y-157253371D01*
X162922933Y-157253371D02*
X163018171Y-157205752D01*
X163018171Y-157205752D02*
X163208647Y-157205752D01*
X163208647Y-157205752D02*
X163303885Y-157253371D01*
X163303885Y-157253371D02*
X163351504Y-157348609D01*
X163351504Y-157348609D02*
X163351504Y-157443847D01*
X163351504Y-157443847D02*
X162875314Y-157539085D01*
X163780076Y-157205752D02*
X163780076Y-157872419D01*
X163780076Y-157300990D02*
X163827695Y-157253371D01*
X163827695Y-157253371D02*
X163922933Y-157205752D01*
X163922933Y-157205752D02*
X164065790Y-157205752D01*
X164065790Y-157205752D02*
X164161028Y-157253371D01*
X164161028Y-157253371D02*
X164208647Y-157348609D01*
X164208647Y-157348609D02*
X164208647Y-157872419D01*
X164637219Y-157824800D02*
X164732457Y-157872419D01*
X164732457Y-157872419D02*
X164922933Y-157872419D01*
X164922933Y-157872419D02*
X165018171Y-157824800D01*
X165018171Y-157824800D02*
X165065790Y-157729561D01*
X165065790Y-157729561D02*
X165065790Y-157681942D01*
X165065790Y-157681942D02*
X165018171Y-157586704D01*
X165018171Y-157586704D02*
X164922933Y-157539085D01*
X164922933Y-157539085D02*
X164780076Y-157539085D01*
X164780076Y-157539085D02*
X164684838Y-157491466D01*
X164684838Y-157491466D02*
X164637219Y-157396228D01*
X164637219Y-157396228D02*
X164637219Y-157348609D01*
X164637219Y-157348609D02*
X164684838Y-157253371D01*
X164684838Y-157253371D02*
X164780076Y-157205752D01*
X164780076Y-157205752D02*
X164922933Y-157205752D01*
X164922933Y-157205752D02*
X165018171Y-157253371D01*
X165637219Y-157872419D02*
X165541981Y-157824800D01*
X165541981Y-157824800D02*
X165494362Y-157777180D01*
X165494362Y-157777180D02*
X165446743Y-157681942D01*
X165446743Y-157681942D02*
X165446743Y-157396228D01*
X165446743Y-157396228D02*
X165494362Y-157300990D01*
X165494362Y-157300990D02*
X165541981Y-157253371D01*
X165541981Y-157253371D02*
X165637219Y-157205752D01*
X165637219Y-157205752D02*
X165780076Y-157205752D01*
X165780076Y-157205752D02*
X165875314Y-157253371D01*
X165875314Y-157253371D02*
X165922933Y-157300990D01*
X165922933Y-157300990D02*
X165970552Y-157396228D01*
X165970552Y-157396228D02*
X165970552Y-157681942D01*
X165970552Y-157681942D02*
X165922933Y-157777180D01*
X165922933Y-157777180D02*
X165875314Y-157824800D01*
X165875314Y-157824800D02*
X165780076Y-157872419D01*
X165780076Y-157872419D02*
X165637219Y-157872419D01*
X166399124Y-157872419D02*
X166399124Y-157205752D01*
X166399124Y-157396228D02*
X166446743Y-157300990D01*
X166446743Y-157300990D02*
X166494362Y-157253371D01*
X166494362Y-157253371D02*
X166589600Y-157205752D01*
X166589600Y-157205752D02*
X166684838Y-157205752D01*
D11*
X141356703Y-133910352D02*
X141337655Y-133929400D01*
X141337655Y-133929400D02*
X141280513Y-133948447D01*
X141280513Y-133948447D02*
X141242417Y-133948447D01*
X141242417Y-133948447D02*
X141185274Y-133929400D01*
X141185274Y-133929400D02*
X141147179Y-133891304D01*
X141147179Y-133891304D02*
X141128132Y-133853209D01*
X141128132Y-133853209D02*
X141109084Y-133777019D01*
X141109084Y-133777019D02*
X141109084Y-133719876D01*
X141109084Y-133719876D02*
X141128132Y-133643685D01*
X141128132Y-133643685D02*
X141147179Y-133605590D01*
X141147179Y-133605590D02*
X141185274Y-133567495D01*
X141185274Y-133567495D02*
X141242417Y-133548447D01*
X141242417Y-133548447D02*
X141280513Y-133548447D01*
X141280513Y-133548447D02*
X141337655Y-133567495D01*
X141337655Y-133567495D02*
X141356703Y-133586542D01*
X141490036Y-133548447D02*
X141737655Y-133548447D01*
X141737655Y-133548447D02*
X141604322Y-133700828D01*
X141604322Y-133700828D02*
X141661465Y-133700828D01*
X141661465Y-133700828D02*
X141699560Y-133719876D01*
X141699560Y-133719876D02*
X141718608Y-133738923D01*
X141718608Y-133738923D02*
X141737655Y-133777019D01*
X141737655Y-133777019D02*
X141737655Y-133872257D01*
X141737655Y-133872257D02*
X141718608Y-133910352D01*
X141718608Y-133910352D02*
X141699560Y-133929400D01*
X141699560Y-133929400D02*
X141661465Y-133948447D01*
X141661465Y-133948447D02*
X141547179Y-133948447D01*
X141547179Y-133948447D02*
X141509084Y-133929400D01*
X141509084Y-133929400D02*
X141490036Y-133910352D01*
X142442417Y-133910352D02*
X142423369Y-133929400D01*
X142423369Y-133929400D02*
X142366227Y-133948447D01*
X142366227Y-133948447D02*
X142328131Y-133948447D01*
X142328131Y-133948447D02*
X142270988Y-133929400D01*
X142270988Y-133929400D02*
X142232893Y-133891304D01*
X142232893Y-133891304D02*
X142213846Y-133853209D01*
X142213846Y-133853209D02*
X142194798Y-133777019D01*
X142194798Y-133777019D02*
X142194798Y-133719876D01*
X142194798Y-133719876D02*
X142213846Y-133643685D01*
X142213846Y-133643685D02*
X142232893Y-133605590D01*
X142232893Y-133605590D02*
X142270988Y-133567495D01*
X142270988Y-133567495D02*
X142328131Y-133548447D01*
X142328131Y-133548447D02*
X142366227Y-133548447D01*
X142366227Y-133548447D02*
X142423369Y-133567495D01*
X142423369Y-133567495D02*
X142442417Y-133586542D01*
X142594798Y-133586542D02*
X142613846Y-133567495D01*
X142613846Y-133567495D02*
X142651941Y-133548447D01*
X142651941Y-133548447D02*
X142747179Y-133548447D01*
X142747179Y-133548447D02*
X142785274Y-133567495D01*
X142785274Y-133567495D02*
X142804322Y-133586542D01*
X142804322Y-133586542D02*
X142823369Y-133624638D01*
X142823369Y-133624638D02*
X142823369Y-133662733D01*
X142823369Y-133662733D02*
X142804322Y-133719876D01*
X142804322Y-133719876D02*
X142575750Y-133948447D01*
X142575750Y-133948447D02*
X142823369Y-133948447D01*
X143528131Y-133910352D02*
X143509083Y-133929400D01*
X143509083Y-133929400D02*
X143451941Y-133948447D01*
X143451941Y-133948447D02*
X143413845Y-133948447D01*
X143413845Y-133948447D02*
X143356702Y-133929400D01*
X143356702Y-133929400D02*
X143318607Y-133891304D01*
X143318607Y-133891304D02*
X143299560Y-133853209D01*
X143299560Y-133853209D02*
X143280512Y-133777019D01*
X143280512Y-133777019D02*
X143280512Y-133719876D01*
X143280512Y-133719876D02*
X143299560Y-133643685D01*
X143299560Y-133643685D02*
X143318607Y-133605590D01*
X143318607Y-133605590D02*
X143356702Y-133567495D01*
X143356702Y-133567495D02*
X143413845Y-133548447D01*
X143413845Y-133548447D02*
X143451941Y-133548447D01*
X143451941Y-133548447D02*
X143509083Y-133567495D01*
X143509083Y-133567495D02*
X143528131Y-133586542D01*
X143909083Y-133948447D02*
X143680512Y-133948447D01*
X143794798Y-133948447D02*
X143794798Y-133548447D01*
X143794798Y-133548447D02*
X143756702Y-133605590D01*
X143756702Y-133605590D02*
X143718607Y-133643685D01*
X143718607Y-133643685D02*
X143680512Y-133662733D01*
X144613845Y-133910352D02*
X144594797Y-133929400D01*
X144594797Y-133929400D02*
X144537655Y-133948447D01*
X144537655Y-133948447D02*
X144499559Y-133948447D01*
X144499559Y-133948447D02*
X144442416Y-133929400D01*
X144442416Y-133929400D02*
X144404321Y-133891304D01*
X144404321Y-133891304D02*
X144385274Y-133853209D01*
X144385274Y-133853209D02*
X144366226Y-133777019D01*
X144366226Y-133777019D02*
X144366226Y-133719876D01*
X144366226Y-133719876D02*
X144385274Y-133643685D01*
X144385274Y-133643685D02*
X144404321Y-133605590D01*
X144404321Y-133605590D02*
X144442416Y-133567495D01*
X144442416Y-133567495D02*
X144499559Y-133548447D01*
X144499559Y-133548447D02*
X144537655Y-133548447D01*
X144537655Y-133548447D02*
X144594797Y-133567495D01*
X144594797Y-133567495D02*
X144613845Y-133586542D01*
X144861464Y-133548447D02*
X144899559Y-133548447D01*
X144899559Y-133548447D02*
X144937655Y-133567495D01*
X144937655Y-133567495D02*
X144956702Y-133586542D01*
X144956702Y-133586542D02*
X144975750Y-133624638D01*
X144975750Y-133624638D02*
X144994797Y-133700828D01*
X144994797Y-133700828D02*
X144994797Y-133796066D01*
X144994797Y-133796066D02*
X144975750Y-133872257D01*
X144975750Y-133872257D02*
X144956702Y-133910352D01*
X144956702Y-133910352D02*
X144937655Y-133929400D01*
X144937655Y-133929400D02*
X144899559Y-133948447D01*
X144899559Y-133948447D02*
X144861464Y-133948447D01*
X144861464Y-133948447D02*
X144823369Y-133929400D01*
X144823369Y-133929400D02*
X144804321Y-133910352D01*
X144804321Y-133910352D02*
X144785274Y-133872257D01*
X144785274Y-133872257D02*
X144766226Y-133796066D01*
X144766226Y-133796066D02*
X144766226Y-133700828D01*
X144766226Y-133700828D02*
X144785274Y-133624638D01*
X144785274Y-133624638D02*
X144804321Y-133586542D01*
X144804321Y-133586542D02*
X144823369Y-133567495D01*
X144823369Y-133567495D02*
X144861464Y-133548447D01*
X146356703Y-133948447D02*
X146223370Y-133757971D01*
X146128132Y-133948447D02*
X146128132Y-133548447D01*
X146128132Y-133548447D02*
X146280513Y-133548447D01*
X146280513Y-133548447D02*
X146318608Y-133567495D01*
X146318608Y-133567495D02*
X146337655Y-133586542D01*
X146337655Y-133586542D02*
X146356703Y-133624638D01*
X146356703Y-133624638D02*
X146356703Y-133681780D01*
X146356703Y-133681780D02*
X146337655Y-133719876D01*
X146337655Y-133719876D02*
X146318608Y-133738923D01*
X146318608Y-133738923D02*
X146280513Y-133757971D01*
X146280513Y-133757971D02*
X146128132Y-133757971D01*
X146490036Y-133548447D02*
X146737655Y-133548447D01*
X146737655Y-133548447D02*
X146604322Y-133700828D01*
X146604322Y-133700828D02*
X146661465Y-133700828D01*
X146661465Y-133700828D02*
X146699560Y-133719876D01*
X146699560Y-133719876D02*
X146718608Y-133738923D01*
X146718608Y-133738923D02*
X146737655Y-133777019D01*
X146737655Y-133777019D02*
X146737655Y-133872257D01*
X146737655Y-133872257D02*
X146718608Y-133910352D01*
X146718608Y-133910352D02*
X146699560Y-133929400D01*
X146699560Y-133929400D02*
X146661465Y-133948447D01*
X146661465Y-133948447D02*
X146547179Y-133948447D01*
X146547179Y-133948447D02*
X146509084Y-133929400D01*
X146509084Y-133929400D02*
X146490036Y-133910352D01*
X147442417Y-133948447D02*
X147309084Y-133757971D01*
X147213846Y-133948447D02*
X147213846Y-133548447D01*
X147213846Y-133548447D02*
X147366227Y-133548447D01*
X147366227Y-133548447D02*
X147404322Y-133567495D01*
X147404322Y-133567495D02*
X147423369Y-133586542D01*
X147423369Y-133586542D02*
X147442417Y-133624638D01*
X147442417Y-133624638D02*
X147442417Y-133681780D01*
X147442417Y-133681780D02*
X147423369Y-133719876D01*
X147423369Y-133719876D02*
X147404322Y-133738923D01*
X147404322Y-133738923D02*
X147366227Y-133757971D01*
X147366227Y-133757971D02*
X147213846Y-133757971D01*
X147594798Y-133586542D02*
X147613846Y-133567495D01*
X147613846Y-133567495D02*
X147651941Y-133548447D01*
X147651941Y-133548447D02*
X147747179Y-133548447D01*
X147747179Y-133548447D02*
X147785274Y-133567495D01*
X147785274Y-133567495D02*
X147804322Y-133586542D01*
X147804322Y-133586542D02*
X147823369Y-133624638D01*
X147823369Y-133624638D02*
X147823369Y-133662733D01*
X147823369Y-133662733D02*
X147804322Y-133719876D01*
X147804322Y-133719876D02*
X147575750Y-133948447D01*
X147575750Y-133948447D02*
X147823369Y-133948447D01*
X148528131Y-133948447D02*
X148394798Y-133757971D01*
X148299560Y-133948447D02*
X148299560Y-133548447D01*
X148299560Y-133548447D02*
X148451941Y-133548447D01*
X148451941Y-133548447D02*
X148490036Y-133567495D01*
X148490036Y-133567495D02*
X148509083Y-133586542D01*
X148509083Y-133586542D02*
X148528131Y-133624638D01*
X148528131Y-133624638D02*
X148528131Y-133681780D01*
X148528131Y-133681780D02*
X148509083Y-133719876D01*
X148509083Y-133719876D02*
X148490036Y-133738923D01*
X148490036Y-133738923D02*
X148451941Y-133757971D01*
X148451941Y-133757971D02*
X148299560Y-133757971D01*
X148909083Y-133948447D02*
X148680512Y-133948447D01*
X148794798Y-133948447D02*
X148794798Y-133548447D01*
X148794798Y-133548447D02*
X148756702Y-133605590D01*
X148756702Y-133605590D02*
X148718607Y-133643685D01*
X148718607Y-133643685D02*
X148680512Y-133662733D01*
X149613845Y-133948447D02*
X149480512Y-133757971D01*
X149385274Y-133948447D02*
X149385274Y-133548447D01*
X149385274Y-133548447D02*
X149537655Y-133548447D01*
X149537655Y-133548447D02*
X149575750Y-133567495D01*
X149575750Y-133567495D02*
X149594797Y-133586542D01*
X149594797Y-133586542D02*
X149613845Y-133624638D01*
X149613845Y-133624638D02*
X149613845Y-133681780D01*
X149613845Y-133681780D02*
X149594797Y-133719876D01*
X149594797Y-133719876D02*
X149575750Y-133738923D01*
X149575750Y-133738923D02*
X149537655Y-133757971D01*
X149537655Y-133757971D02*
X149385274Y-133757971D01*
X149861464Y-133548447D02*
X149899559Y-133548447D01*
X149899559Y-133548447D02*
X149937655Y-133567495D01*
X149937655Y-133567495D02*
X149956702Y-133586542D01*
X149956702Y-133586542D02*
X149975750Y-133624638D01*
X149975750Y-133624638D02*
X149994797Y-133700828D01*
X149994797Y-133700828D02*
X149994797Y-133796066D01*
X149994797Y-133796066D02*
X149975750Y-133872257D01*
X149975750Y-133872257D02*
X149956702Y-133910352D01*
X149956702Y-133910352D02*
X149937655Y-133929400D01*
X149937655Y-133929400D02*
X149899559Y-133948447D01*
X149899559Y-133948447D02*
X149861464Y-133948447D01*
X149861464Y-133948447D02*
X149823369Y-133929400D01*
X149823369Y-133929400D02*
X149804321Y-133910352D01*
X149804321Y-133910352D02*
X149785274Y-133872257D01*
X149785274Y-133872257D02*
X149766226Y-133796066D01*
X149766226Y-133796066D02*
X149766226Y-133700828D01*
X149766226Y-133700828D02*
X149785274Y-133624638D01*
X149785274Y-133624638D02*
X149804321Y-133586542D01*
X149804321Y-133586542D02*
X149823369Y-133567495D01*
X149823369Y-133567495D02*
X149861464Y-133548447D01*
D10*
X148428570Y-84214856D02*
X148571427Y-84262475D01*
X148571427Y-84262475D02*
X148809522Y-84262475D01*
X148809522Y-84262475D02*
X148904760Y-84214856D01*
X148904760Y-84214856D02*
X148952379Y-84167236D01*
X148952379Y-84167236D02*
X148999998Y-84071998D01*
X148999998Y-84071998D02*
X148999998Y-83976760D01*
X148999998Y-83976760D02*
X148952379Y-83881522D01*
X148952379Y-83881522D02*
X148904760Y-83833903D01*
X148904760Y-83833903D02*
X148809522Y-83786284D01*
X148809522Y-83786284D02*
X148619046Y-83738665D01*
X148619046Y-83738665D02*
X148523808Y-83691046D01*
X148523808Y-83691046D02*
X148476189Y-83643427D01*
X148476189Y-83643427D02*
X148428570Y-83548189D01*
X148428570Y-83548189D02*
X148428570Y-83452951D01*
X148428570Y-83452951D02*
X148476189Y-83357713D01*
X148476189Y-83357713D02*
X148523808Y-83310094D01*
X148523808Y-83310094D02*
X148619046Y-83262475D01*
X148619046Y-83262475D02*
X148857141Y-83262475D01*
X148857141Y-83262475D02*
X148999998Y-83310094D01*
X149428570Y-84262475D02*
X149428570Y-83595808D01*
X149428570Y-83691046D02*
X149476189Y-83643427D01*
X149476189Y-83643427D02*
X149571427Y-83595808D01*
X149571427Y-83595808D02*
X149714284Y-83595808D01*
X149714284Y-83595808D02*
X149809522Y-83643427D01*
X149809522Y-83643427D02*
X149857141Y-83738665D01*
X149857141Y-83738665D02*
X149857141Y-84262475D01*
X149857141Y-83738665D02*
X149904760Y-83643427D01*
X149904760Y-83643427D02*
X149999998Y-83595808D01*
X149999998Y-83595808D02*
X150142855Y-83595808D01*
X150142855Y-83595808D02*
X150238094Y-83643427D01*
X150238094Y-83643427D02*
X150285713Y-83738665D01*
X150285713Y-83738665D02*
X150285713Y-84262475D01*
X151190474Y-84262475D02*
X151190474Y-83738665D01*
X151190474Y-83738665D02*
X151142855Y-83643427D01*
X151142855Y-83643427D02*
X151047617Y-83595808D01*
X151047617Y-83595808D02*
X150857141Y-83595808D01*
X150857141Y-83595808D02*
X150761903Y-83643427D01*
X151190474Y-84214856D02*
X151095236Y-84262475D01*
X151095236Y-84262475D02*
X150857141Y-84262475D01*
X150857141Y-84262475D02*
X150761903Y-84214856D01*
X150761903Y-84214856D02*
X150714284Y-84119617D01*
X150714284Y-84119617D02*
X150714284Y-84024379D01*
X150714284Y-84024379D02*
X150761903Y-83929141D01*
X150761903Y-83929141D02*
X150857141Y-83881522D01*
X150857141Y-83881522D02*
X151095236Y-83881522D01*
X151095236Y-83881522D02*
X151190474Y-83833903D01*
X151666665Y-84262475D02*
X151666665Y-83595808D01*
X151666665Y-83786284D02*
X151714284Y-83691046D01*
X151714284Y-83691046D02*
X151761903Y-83643427D01*
X151761903Y-83643427D02*
X151857141Y-83595808D01*
X151857141Y-83595808D02*
X151952379Y-83595808D01*
X152142856Y-83595808D02*
X152523808Y-83595808D01*
X152285713Y-83262475D02*
X152285713Y-84119617D01*
X152285713Y-84119617D02*
X152333332Y-84214856D01*
X152333332Y-84214856D02*
X152428570Y-84262475D01*
X152428570Y-84262475D02*
X152523808Y-84262475D01*
X153619047Y-84262475D02*
X153619047Y-83262475D01*
X153619047Y-83262475D02*
X153952380Y-83976760D01*
X153952380Y-83976760D02*
X154285713Y-83262475D01*
X154285713Y-83262475D02*
X154285713Y-84262475D01*
X154904761Y-84262475D02*
X154809523Y-84214856D01*
X154809523Y-84214856D02*
X154761904Y-84167236D01*
X154761904Y-84167236D02*
X154714285Y-84071998D01*
X154714285Y-84071998D02*
X154714285Y-83786284D01*
X154714285Y-83786284D02*
X154761904Y-83691046D01*
X154761904Y-83691046D02*
X154809523Y-83643427D01*
X154809523Y-83643427D02*
X154904761Y-83595808D01*
X154904761Y-83595808D02*
X155047618Y-83595808D01*
X155047618Y-83595808D02*
X155142856Y-83643427D01*
X155142856Y-83643427D02*
X155190475Y-83691046D01*
X155190475Y-83691046D02*
X155238094Y-83786284D01*
X155238094Y-83786284D02*
X155238094Y-84071998D01*
X155238094Y-84071998D02*
X155190475Y-84167236D01*
X155190475Y-84167236D02*
X155142856Y-84214856D01*
X155142856Y-84214856D02*
X155047618Y-84262475D01*
X155047618Y-84262475D02*
X154904761Y-84262475D01*
X155666666Y-83595808D02*
X155666666Y-84262475D01*
X155666666Y-83691046D02*
X155714285Y-83643427D01*
X155714285Y-83643427D02*
X155809523Y-83595808D01*
X155809523Y-83595808D02*
X155952380Y-83595808D01*
X155952380Y-83595808D02*
X156047618Y-83643427D01*
X156047618Y-83643427D02*
X156095237Y-83738665D01*
X156095237Y-83738665D02*
X156095237Y-84262475D01*
X156571428Y-84262475D02*
X156571428Y-83595808D01*
X156571428Y-83262475D02*
X156523809Y-83310094D01*
X156523809Y-83310094D02*
X156571428Y-83357713D01*
X156571428Y-83357713D02*
X156619047Y-83310094D01*
X156619047Y-83310094D02*
X156571428Y-83262475D01*
X156571428Y-83262475D02*
X156571428Y-83357713D01*
X156904761Y-83595808D02*
X157285713Y-83595808D01*
X157047618Y-83262475D02*
X157047618Y-84119617D01*
X157047618Y-84119617D02*
X157095237Y-84214856D01*
X157095237Y-84214856D02*
X157190475Y-84262475D01*
X157190475Y-84262475D02*
X157285713Y-84262475D01*
X157761904Y-84262475D02*
X157666666Y-84214856D01*
X157666666Y-84214856D02*
X157619047Y-84167236D01*
X157619047Y-84167236D02*
X157571428Y-84071998D01*
X157571428Y-84071998D02*
X157571428Y-83786284D01*
X157571428Y-83786284D02*
X157619047Y-83691046D01*
X157619047Y-83691046D02*
X157666666Y-83643427D01*
X157666666Y-83643427D02*
X157761904Y-83595808D01*
X157761904Y-83595808D02*
X157904761Y-83595808D01*
X157904761Y-83595808D02*
X157999999Y-83643427D01*
X157999999Y-83643427D02*
X158047618Y-83691046D01*
X158047618Y-83691046D02*
X158095237Y-83786284D01*
X158095237Y-83786284D02*
X158095237Y-84071998D01*
X158095237Y-84071998D02*
X158047618Y-84167236D01*
X158047618Y-84167236D02*
X157999999Y-84214856D01*
X157999999Y-84214856D02*
X157904761Y-84262475D01*
X157904761Y-84262475D02*
X157761904Y-84262475D01*
X158523809Y-84262475D02*
X158523809Y-83595808D01*
X158523809Y-83786284D02*
X158571428Y-83691046D01*
X158571428Y-83691046D02*
X158619047Y-83643427D01*
X158619047Y-83643427D02*
X158714285Y-83595808D01*
X158714285Y-83595808D02*
X158809523Y-83595808D01*
X160476190Y-84262475D02*
X160142857Y-83786284D01*
X159904762Y-84262475D02*
X159904762Y-83262475D01*
X159904762Y-83262475D02*
X160285714Y-83262475D01*
X160285714Y-83262475D02*
X160380952Y-83310094D01*
X160380952Y-83310094D02*
X160428571Y-83357713D01*
X160428571Y-83357713D02*
X160476190Y-83452951D01*
X160476190Y-83452951D02*
X160476190Y-83595808D01*
X160476190Y-83595808D02*
X160428571Y-83691046D01*
X160428571Y-83691046D02*
X160380952Y-83738665D01*
X160380952Y-83738665D02*
X160285714Y-83786284D01*
X160285714Y-83786284D02*
X159904762Y-83786284D01*
X161285714Y-84214856D02*
X161190476Y-84262475D01*
X161190476Y-84262475D02*
X161000000Y-84262475D01*
X161000000Y-84262475D02*
X160904762Y-84214856D01*
X160904762Y-84214856D02*
X160857143Y-84119617D01*
X160857143Y-84119617D02*
X160857143Y-83738665D01*
X160857143Y-83738665D02*
X160904762Y-83643427D01*
X160904762Y-83643427D02*
X161000000Y-83595808D01*
X161000000Y-83595808D02*
X161190476Y-83595808D01*
X161190476Y-83595808D02*
X161285714Y-83643427D01*
X161285714Y-83643427D02*
X161333333Y-83738665D01*
X161333333Y-83738665D02*
X161333333Y-83833903D01*
X161333333Y-83833903D02*
X160857143Y-83929141D01*
X161714286Y-84214856D02*
X161809524Y-84262475D01*
X161809524Y-84262475D02*
X162000000Y-84262475D01*
X162000000Y-84262475D02*
X162095238Y-84214856D01*
X162095238Y-84214856D02*
X162142857Y-84119617D01*
X162142857Y-84119617D02*
X162142857Y-84071998D01*
X162142857Y-84071998D02*
X162095238Y-83976760D01*
X162095238Y-83976760D02*
X162000000Y-83929141D01*
X162000000Y-83929141D02*
X161857143Y-83929141D01*
X161857143Y-83929141D02*
X161761905Y-83881522D01*
X161761905Y-83881522D02*
X161714286Y-83786284D01*
X161714286Y-83786284D02*
X161714286Y-83738665D01*
X161714286Y-83738665D02*
X161761905Y-83643427D01*
X161761905Y-83643427D02*
X161857143Y-83595808D01*
X161857143Y-83595808D02*
X162000000Y-83595808D01*
X162000000Y-83595808D02*
X162095238Y-83643427D01*
X162952381Y-84214856D02*
X162857143Y-84262475D01*
X162857143Y-84262475D02*
X162666667Y-84262475D01*
X162666667Y-84262475D02*
X162571429Y-84214856D01*
X162571429Y-84214856D02*
X162523810Y-84119617D01*
X162523810Y-84119617D02*
X162523810Y-83738665D01*
X162523810Y-83738665D02*
X162571429Y-83643427D01*
X162571429Y-83643427D02*
X162666667Y-83595808D01*
X162666667Y-83595808D02*
X162857143Y-83595808D01*
X162857143Y-83595808D02*
X162952381Y-83643427D01*
X162952381Y-83643427D02*
X163000000Y-83738665D01*
X163000000Y-83738665D02*
X163000000Y-83833903D01*
X163000000Y-83833903D02*
X162523810Y-83929141D01*
X163285715Y-83595808D02*
X163666667Y-83595808D01*
X163428572Y-83262475D02*
X163428572Y-84119617D01*
X163428572Y-84119617D02*
X163476191Y-84214856D01*
X163476191Y-84214856D02*
X163571429Y-84262475D01*
X163571429Y-84262475D02*
X163666667Y-84262475D01*
X151666665Y-86253371D02*
X151619046Y-86205752D01*
X151619046Y-86205752D02*
X151523808Y-86062895D01*
X151523808Y-86062895D02*
X151476189Y-85967657D01*
X151476189Y-85967657D02*
X151428570Y-85824800D01*
X151428570Y-85824800D02*
X151380951Y-85586704D01*
X151380951Y-85586704D02*
X151380951Y-85396228D01*
X151380951Y-85396228D02*
X151428570Y-85158133D01*
X151428570Y-85158133D02*
X151476189Y-85015276D01*
X151476189Y-85015276D02*
X151523808Y-84920038D01*
X151523808Y-84920038D02*
X151619046Y-84777180D01*
X151619046Y-84777180D02*
X151666665Y-84729561D01*
X152047618Y-85872419D02*
X152047618Y-84872419D01*
X152047618Y-85348609D02*
X152619046Y-85348609D01*
X152619046Y-85872419D02*
X152619046Y-84872419D01*
X153238094Y-85872419D02*
X153142856Y-85824800D01*
X153142856Y-85824800D02*
X153095237Y-85777180D01*
X153095237Y-85777180D02*
X153047618Y-85681942D01*
X153047618Y-85681942D02*
X153047618Y-85396228D01*
X153047618Y-85396228D02*
X153095237Y-85300990D01*
X153095237Y-85300990D02*
X153142856Y-85253371D01*
X153142856Y-85253371D02*
X153238094Y-85205752D01*
X153238094Y-85205752D02*
X153380951Y-85205752D01*
X153380951Y-85205752D02*
X153476189Y-85253371D01*
X153476189Y-85253371D02*
X153523808Y-85300990D01*
X153523808Y-85300990D02*
X153571427Y-85396228D01*
X153571427Y-85396228D02*
X153571427Y-85681942D01*
X153571427Y-85681942D02*
X153523808Y-85777180D01*
X153523808Y-85777180D02*
X153476189Y-85824800D01*
X153476189Y-85824800D02*
X153380951Y-85872419D01*
X153380951Y-85872419D02*
X153238094Y-85872419D01*
X154142856Y-85872419D02*
X154047618Y-85824800D01*
X154047618Y-85824800D02*
X153999999Y-85729561D01*
X153999999Y-85729561D02*
X153999999Y-84872419D01*
X154952380Y-85872419D02*
X154952380Y-84872419D01*
X154952380Y-85824800D02*
X154857142Y-85872419D01*
X154857142Y-85872419D02*
X154666666Y-85872419D01*
X154666666Y-85872419D02*
X154571428Y-85824800D01*
X154571428Y-85824800D02*
X154523809Y-85777180D01*
X154523809Y-85777180D02*
X154476190Y-85681942D01*
X154476190Y-85681942D02*
X154476190Y-85396228D01*
X154476190Y-85396228D02*
X154523809Y-85300990D01*
X154523809Y-85300990D02*
X154571428Y-85253371D01*
X154571428Y-85253371D02*
X154666666Y-85205752D01*
X154666666Y-85205752D02*
X154857142Y-85205752D01*
X154857142Y-85205752D02*
X154952380Y-85253371D01*
X156666666Y-84872419D02*
X156190476Y-84872419D01*
X156190476Y-84872419D02*
X156142857Y-85348609D01*
X156142857Y-85348609D02*
X156190476Y-85300990D01*
X156190476Y-85300990D02*
X156285714Y-85253371D01*
X156285714Y-85253371D02*
X156523809Y-85253371D01*
X156523809Y-85253371D02*
X156619047Y-85300990D01*
X156619047Y-85300990D02*
X156666666Y-85348609D01*
X156666666Y-85348609D02*
X156714285Y-85443847D01*
X156714285Y-85443847D02*
X156714285Y-85681942D01*
X156714285Y-85681942D02*
X156666666Y-85777180D01*
X156666666Y-85777180D02*
X156619047Y-85824800D01*
X156619047Y-85824800D02*
X156523809Y-85872419D01*
X156523809Y-85872419D02*
X156285714Y-85872419D01*
X156285714Y-85872419D02*
X156190476Y-85824800D01*
X156190476Y-85824800D02*
X156142857Y-85777180D01*
X157857143Y-85824800D02*
X157952381Y-85872419D01*
X157952381Y-85872419D02*
X158142857Y-85872419D01*
X158142857Y-85872419D02*
X158238095Y-85824800D01*
X158238095Y-85824800D02*
X158285714Y-85729561D01*
X158285714Y-85729561D02*
X158285714Y-85681942D01*
X158285714Y-85681942D02*
X158238095Y-85586704D01*
X158238095Y-85586704D02*
X158142857Y-85539085D01*
X158142857Y-85539085D02*
X158000000Y-85539085D01*
X158000000Y-85539085D02*
X157904762Y-85491466D01*
X157904762Y-85491466D02*
X157857143Y-85396228D01*
X157857143Y-85396228D02*
X157857143Y-85348609D01*
X157857143Y-85348609D02*
X157904762Y-85253371D01*
X157904762Y-85253371D02*
X158000000Y-85205752D01*
X158000000Y-85205752D02*
X158142857Y-85205752D01*
X158142857Y-85205752D02*
X158238095Y-85253371D01*
X159095238Y-85824800D02*
X159000000Y-85872419D01*
X159000000Y-85872419D02*
X158809524Y-85872419D01*
X158809524Y-85872419D02*
X158714286Y-85824800D01*
X158714286Y-85824800D02*
X158666667Y-85729561D01*
X158666667Y-85729561D02*
X158666667Y-85348609D01*
X158666667Y-85348609D02*
X158714286Y-85253371D01*
X158714286Y-85253371D02*
X158809524Y-85205752D01*
X158809524Y-85205752D02*
X159000000Y-85205752D01*
X159000000Y-85205752D02*
X159095238Y-85253371D01*
X159095238Y-85253371D02*
X159142857Y-85348609D01*
X159142857Y-85348609D02*
X159142857Y-85443847D01*
X159142857Y-85443847D02*
X158666667Y-85539085D01*
X160000000Y-85824800D02*
X159904762Y-85872419D01*
X159904762Y-85872419D02*
X159714286Y-85872419D01*
X159714286Y-85872419D02*
X159619048Y-85824800D01*
X159619048Y-85824800D02*
X159571429Y-85777180D01*
X159571429Y-85777180D02*
X159523810Y-85681942D01*
X159523810Y-85681942D02*
X159523810Y-85396228D01*
X159523810Y-85396228D02*
X159571429Y-85300990D01*
X159571429Y-85300990D02*
X159619048Y-85253371D01*
X159619048Y-85253371D02*
X159714286Y-85205752D01*
X159714286Y-85205752D02*
X159904762Y-85205752D01*
X159904762Y-85205752D02*
X160000000Y-85253371D01*
X160333334Y-86253371D02*
X160380953Y-86205752D01*
X160380953Y-86205752D02*
X160476191Y-86062895D01*
X160476191Y-86062895D02*
X160523810Y-85967657D01*
X160523810Y-85967657D02*
X160571429Y-85824800D01*
X160571429Y-85824800D02*
X160619048Y-85586704D01*
X160619048Y-85586704D02*
X160619048Y-85396228D01*
X160619048Y-85396228D02*
X160571429Y-85158133D01*
X160571429Y-85158133D02*
X160523810Y-85015276D01*
X160523810Y-85015276D02*
X160476191Y-84920038D01*
X160476191Y-84920038D02*
X160380953Y-84777180D01*
X160380953Y-84777180D02*
X160333334Y-84729561D01*
X140256265Y-145586704D02*
X140732455Y-145586704D01*
X140161027Y-145872419D02*
X140494360Y-144872419D01*
X140494360Y-144872419D02*
X140827693Y-145872419D01*
X141351503Y-144872419D02*
X141446741Y-144872419D01*
X141446741Y-144872419D02*
X141541979Y-144920038D01*
X141541979Y-144920038D02*
X141589598Y-144967657D01*
X141589598Y-144967657D02*
X141637217Y-145062895D01*
X141637217Y-145062895D02*
X141684836Y-145253371D01*
X141684836Y-145253371D02*
X141684836Y-145491466D01*
X141684836Y-145491466D02*
X141637217Y-145681942D01*
X141637217Y-145681942D02*
X141589598Y-145777180D01*
X141589598Y-145777180D02*
X141541979Y-145824800D01*
X141541979Y-145824800D02*
X141446741Y-145872419D01*
X141446741Y-145872419D02*
X141351503Y-145872419D01*
X141351503Y-145872419D02*
X141256265Y-145824800D01*
X141256265Y-145824800D02*
X141208646Y-145777180D01*
X141208646Y-145777180D02*
X141161027Y-145681942D01*
X141161027Y-145681942D02*
X141113408Y-145491466D01*
X141113408Y-145491466D02*
X141113408Y-145253371D01*
X141113408Y-145253371D02*
X141161027Y-145062895D01*
X141161027Y-145062895D02*
X141208646Y-144967657D01*
X141208646Y-144967657D02*
X141256265Y-144920038D01*
X141256265Y-144920038D02*
X141351503Y-144872419D01*
X143494361Y-144872419D02*
X143827694Y-145872419D01*
X143827694Y-145872419D02*
X144161027Y-144872419D01*
X145065789Y-145777180D02*
X145018170Y-145824800D01*
X145018170Y-145824800D02*
X144875313Y-145872419D01*
X144875313Y-145872419D02*
X144780075Y-145872419D01*
X144780075Y-145872419D02*
X144637218Y-145824800D01*
X144637218Y-145824800D02*
X144541980Y-145729561D01*
X144541980Y-145729561D02*
X144494361Y-145634323D01*
X144494361Y-145634323D02*
X144446742Y-145443847D01*
X144446742Y-145443847D02*
X144446742Y-145300990D01*
X144446742Y-145300990D02*
X144494361Y-145110514D01*
X144494361Y-145110514D02*
X144541980Y-145015276D01*
X144541980Y-145015276D02*
X144637218Y-144920038D01*
X144637218Y-144920038D02*
X144780075Y-144872419D01*
X144780075Y-144872419D02*
X144875313Y-144872419D01*
X144875313Y-144872419D02*
X145018170Y-144920038D01*
X145018170Y-144920038D02*
X145065789Y-144967657D01*
X146065789Y-145777180D02*
X146018170Y-145824800D01*
X146018170Y-145824800D02*
X145875313Y-145872419D01*
X145875313Y-145872419D02*
X145780075Y-145872419D01*
X145780075Y-145872419D02*
X145637218Y-145824800D01*
X145637218Y-145824800D02*
X145541980Y-145729561D01*
X145541980Y-145729561D02*
X145494361Y-145634323D01*
X145494361Y-145634323D02*
X145446742Y-145443847D01*
X145446742Y-145443847D02*
X145446742Y-145300990D01*
X145446742Y-145300990D02*
X145494361Y-145110514D01*
X145494361Y-145110514D02*
X145541980Y-145015276D01*
X145541980Y-145015276D02*
X145637218Y-144920038D01*
X145637218Y-144920038D02*
X145780075Y-144872419D01*
X145780075Y-144872419D02*
X145875313Y-144872419D01*
X145875313Y-144872419D02*
X146018170Y-144920038D01*
X146018170Y-144920038D02*
X146065789Y-144967657D01*
X148541980Y-144920038D02*
X148446742Y-144872419D01*
X148446742Y-144872419D02*
X148303885Y-144872419D01*
X148303885Y-144872419D02*
X148161028Y-144920038D01*
X148161028Y-144920038D02*
X148065790Y-145015276D01*
X148065790Y-145015276D02*
X148018171Y-145110514D01*
X148018171Y-145110514D02*
X147970552Y-145300990D01*
X147970552Y-145300990D02*
X147970552Y-145443847D01*
X147970552Y-145443847D02*
X148018171Y-145634323D01*
X148018171Y-145634323D02*
X148065790Y-145729561D01*
X148065790Y-145729561D02*
X148161028Y-145824800D01*
X148161028Y-145824800D02*
X148303885Y-145872419D01*
X148303885Y-145872419D02*
X148399123Y-145872419D01*
X148399123Y-145872419D02*
X148541980Y-145824800D01*
X148541980Y-145824800D02*
X148589599Y-145777180D01*
X148589599Y-145777180D02*
X148589599Y-145443847D01*
X148589599Y-145443847D02*
X148399123Y-145443847D01*
X149018171Y-145872419D02*
X149018171Y-144872419D01*
X149018171Y-144872419D02*
X149589599Y-145872419D01*
X149589599Y-145872419D02*
X149589599Y-144872419D01*
X150065790Y-145872419D02*
X150065790Y-144872419D01*
X150065790Y-144872419D02*
X150303885Y-144872419D01*
X150303885Y-144872419D02*
X150446742Y-144920038D01*
X150446742Y-144920038D02*
X150541980Y-145015276D01*
X150541980Y-145015276D02*
X150589599Y-145110514D01*
X150589599Y-145110514D02*
X150637218Y-145300990D01*
X150637218Y-145300990D02*
X150637218Y-145443847D01*
X150637218Y-145443847D02*
X150589599Y-145634323D01*
X150589599Y-145634323D02*
X150541980Y-145729561D01*
X150541980Y-145729561D02*
X150446742Y-145824800D01*
X150446742Y-145824800D02*
X150303885Y-145872419D01*
X150303885Y-145872419D02*
X150065790Y-145872419D01*
X202256265Y-84586704D02*
X202732455Y-84586704D01*
X202161027Y-84872419D02*
X202494360Y-83872419D01*
X202494360Y-83872419D02*
X202827693Y-84872419D01*
X203018170Y-83872419D02*
X203589598Y-83872419D01*
X203303884Y-84872419D02*
X203303884Y-83872419D01*
X203922932Y-84872419D02*
X203922932Y-84205752D01*
X203922932Y-84300990D02*
X203970551Y-84253371D01*
X203970551Y-84253371D02*
X204065789Y-84205752D01*
X204065789Y-84205752D02*
X204208646Y-84205752D01*
X204208646Y-84205752D02*
X204303884Y-84253371D01*
X204303884Y-84253371D02*
X204351503Y-84348609D01*
X204351503Y-84348609D02*
X204351503Y-84872419D01*
X204351503Y-84348609D02*
X204399122Y-84253371D01*
X204399122Y-84253371D02*
X204494360Y-84205752D01*
X204494360Y-84205752D02*
X204637217Y-84205752D01*
X204637217Y-84205752D02*
X204732456Y-84253371D01*
X204732456Y-84253371D02*
X204780075Y-84348609D01*
X204780075Y-84348609D02*
X204780075Y-84872419D01*
X205637217Y-84824800D02*
X205541979Y-84872419D01*
X205541979Y-84872419D02*
X205351503Y-84872419D01*
X205351503Y-84872419D02*
X205256265Y-84824800D01*
X205256265Y-84824800D02*
X205208646Y-84729561D01*
X205208646Y-84729561D02*
X205208646Y-84348609D01*
X205208646Y-84348609D02*
X205256265Y-84253371D01*
X205256265Y-84253371D02*
X205351503Y-84205752D01*
X205351503Y-84205752D02*
X205541979Y-84205752D01*
X205541979Y-84205752D02*
X205637217Y-84253371D01*
X205637217Y-84253371D02*
X205684836Y-84348609D01*
X205684836Y-84348609D02*
X205684836Y-84443847D01*
X205684836Y-84443847D02*
X205208646Y-84539085D01*
X206541979Y-84205752D02*
X206541979Y-85015276D01*
X206541979Y-85015276D02*
X206494360Y-85110514D01*
X206494360Y-85110514D02*
X206446741Y-85158133D01*
X206446741Y-85158133D02*
X206351503Y-85205752D01*
X206351503Y-85205752D02*
X206208646Y-85205752D01*
X206208646Y-85205752D02*
X206113408Y-85158133D01*
X206541979Y-84824800D02*
X206446741Y-84872419D01*
X206446741Y-84872419D02*
X206256265Y-84872419D01*
X206256265Y-84872419D02*
X206161027Y-84824800D01*
X206161027Y-84824800D02*
X206113408Y-84777180D01*
X206113408Y-84777180D02*
X206065789Y-84681942D01*
X206065789Y-84681942D02*
X206065789Y-84396228D01*
X206065789Y-84396228D02*
X206113408Y-84300990D01*
X206113408Y-84300990D02*
X206161027Y-84253371D01*
X206161027Y-84253371D02*
X206256265Y-84205752D01*
X206256265Y-84205752D02*
X206446741Y-84205752D01*
X206446741Y-84205752D02*
X206541979Y-84253371D01*
X207446741Y-84872419D02*
X207446741Y-84348609D01*
X207446741Y-84348609D02*
X207399122Y-84253371D01*
X207399122Y-84253371D02*
X207303884Y-84205752D01*
X207303884Y-84205752D02*
X207113408Y-84205752D01*
X207113408Y-84205752D02*
X207018170Y-84253371D01*
X207446741Y-84824800D02*
X207351503Y-84872419D01*
X207351503Y-84872419D02*
X207113408Y-84872419D01*
X207113408Y-84872419D02*
X207018170Y-84824800D01*
X207018170Y-84824800D02*
X206970551Y-84729561D01*
X206970551Y-84729561D02*
X206970551Y-84634323D01*
X206970551Y-84634323D02*
X207018170Y-84539085D01*
X207018170Y-84539085D02*
X207113408Y-84491466D01*
X207113408Y-84491466D02*
X207351503Y-84491466D01*
X207351503Y-84491466D02*
X207446741Y-84443847D01*
X207875313Y-83967657D02*
X207922932Y-83920038D01*
X207922932Y-83920038D02*
X208018170Y-83872419D01*
X208018170Y-83872419D02*
X208256265Y-83872419D01*
X208256265Y-83872419D02*
X208351503Y-83920038D01*
X208351503Y-83920038D02*
X208399122Y-83967657D01*
X208399122Y-83967657D02*
X208446741Y-84062895D01*
X208446741Y-84062895D02*
X208446741Y-84158133D01*
X208446741Y-84158133D02*
X208399122Y-84300990D01*
X208399122Y-84300990D02*
X207827694Y-84872419D01*
X207827694Y-84872419D02*
X208446741Y-84872419D01*
X209351503Y-83872419D02*
X208875313Y-83872419D01*
X208875313Y-83872419D02*
X208827694Y-84348609D01*
X208827694Y-84348609D02*
X208875313Y-84300990D01*
X208875313Y-84300990D02*
X208970551Y-84253371D01*
X208970551Y-84253371D02*
X209208646Y-84253371D01*
X209208646Y-84253371D02*
X209303884Y-84300990D01*
X209303884Y-84300990D02*
X209351503Y-84348609D01*
X209351503Y-84348609D02*
X209399122Y-84443847D01*
X209399122Y-84443847D02*
X209399122Y-84681942D01*
X209399122Y-84681942D02*
X209351503Y-84777180D01*
X209351503Y-84777180D02*
X209303884Y-84824800D01*
X209303884Y-84824800D02*
X209208646Y-84872419D01*
X209208646Y-84872419D02*
X208970551Y-84872419D01*
X208970551Y-84872419D02*
X208875313Y-84824800D01*
X208875313Y-84824800D02*
X208827694Y-84777180D01*
X210256265Y-83872419D02*
X210065789Y-83872419D01*
X210065789Y-83872419D02*
X209970551Y-83920038D01*
X209970551Y-83920038D02*
X209922932Y-83967657D01*
X209922932Y-83967657D02*
X209827694Y-84110514D01*
X209827694Y-84110514D02*
X209780075Y-84300990D01*
X209780075Y-84300990D02*
X209780075Y-84681942D01*
X209780075Y-84681942D02*
X209827694Y-84777180D01*
X209827694Y-84777180D02*
X209875313Y-84824800D01*
X209875313Y-84824800D02*
X209970551Y-84872419D01*
X209970551Y-84872419D02*
X210161027Y-84872419D01*
X210161027Y-84872419D02*
X210256265Y-84824800D01*
X210256265Y-84824800D02*
X210303884Y-84777180D01*
X210303884Y-84777180D02*
X210351503Y-84681942D01*
X210351503Y-84681942D02*
X210351503Y-84443847D01*
X210351503Y-84443847D02*
X210303884Y-84348609D01*
X210303884Y-84348609D02*
X210256265Y-84300990D01*
X210256265Y-84300990D02*
X210161027Y-84253371D01*
X210161027Y-84253371D02*
X209970551Y-84253371D01*
X209970551Y-84253371D02*
X209875313Y-84300990D01*
X209875313Y-84300990D02*
X209827694Y-84348609D01*
X209827694Y-84348609D02*
X209780075Y-84443847D01*
X210970551Y-83872419D02*
X211065789Y-83872419D01*
X211065789Y-83872419D02*
X211161027Y-83920038D01*
X211161027Y-83920038D02*
X211208646Y-83967657D01*
X211208646Y-83967657D02*
X211256265Y-84062895D01*
X211256265Y-84062895D02*
X211303884Y-84253371D01*
X211303884Y-84253371D02*
X211303884Y-84491466D01*
X211303884Y-84491466D02*
X211256265Y-84681942D01*
X211256265Y-84681942D02*
X211208646Y-84777180D01*
X211208646Y-84777180D02*
X211161027Y-84824800D01*
X211161027Y-84824800D02*
X211065789Y-84872419D01*
X211065789Y-84872419D02*
X210970551Y-84872419D01*
X210970551Y-84872419D02*
X210875313Y-84824800D01*
X210875313Y-84824800D02*
X210827694Y-84777180D01*
X210827694Y-84777180D02*
X210780075Y-84681942D01*
X210780075Y-84681942D02*
X210732456Y-84491466D01*
X210732456Y-84491466D02*
X210732456Y-84253371D01*
X210732456Y-84253371D02*
X210780075Y-84062895D01*
X210780075Y-84062895D02*
X210827694Y-83967657D01*
X210827694Y-83967657D02*
X210875313Y-83920038D01*
X210875313Y-83920038D02*
X210970551Y-83872419D01*
X212494361Y-84872419D02*
X212494361Y-84205752D01*
X212494361Y-84396228D02*
X212541980Y-84300990D01*
X212541980Y-84300990D02*
X212589599Y-84253371D01*
X212589599Y-84253371D02*
X212684837Y-84205752D01*
X212684837Y-84205752D02*
X212780075Y-84205752D01*
X213494361Y-84824800D02*
X213399123Y-84872419D01*
X213399123Y-84872419D02*
X213208647Y-84872419D01*
X213208647Y-84872419D02*
X213113409Y-84824800D01*
X213113409Y-84824800D02*
X213065790Y-84729561D01*
X213065790Y-84729561D02*
X213065790Y-84348609D01*
X213065790Y-84348609D02*
X213113409Y-84253371D01*
X213113409Y-84253371D02*
X213208647Y-84205752D01*
X213208647Y-84205752D02*
X213399123Y-84205752D01*
X213399123Y-84205752D02*
X213494361Y-84253371D01*
X213494361Y-84253371D02*
X213541980Y-84348609D01*
X213541980Y-84348609D02*
X213541980Y-84443847D01*
X213541980Y-84443847D02*
X213065790Y-84539085D01*
X213922933Y-84824800D02*
X214018171Y-84872419D01*
X214018171Y-84872419D02*
X214208647Y-84872419D01*
X214208647Y-84872419D02*
X214303885Y-84824800D01*
X214303885Y-84824800D02*
X214351504Y-84729561D01*
X214351504Y-84729561D02*
X214351504Y-84681942D01*
X214351504Y-84681942D02*
X214303885Y-84586704D01*
X214303885Y-84586704D02*
X214208647Y-84539085D01*
X214208647Y-84539085D02*
X214065790Y-84539085D01*
X214065790Y-84539085D02*
X213970552Y-84491466D01*
X213970552Y-84491466D02*
X213922933Y-84396228D01*
X213922933Y-84396228D02*
X213922933Y-84348609D01*
X213922933Y-84348609D02*
X213970552Y-84253371D01*
X213970552Y-84253371D02*
X214065790Y-84205752D01*
X214065790Y-84205752D02*
X214208647Y-84205752D01*
X214208647Y-84205752D02*
X214303885Y-84253371D01*
X215161028Y-84824800D02*
X215065790Y-84872419D01*
X215065790Y-84872419D02*
X214875314Y-84872419D01*
X214875314Y-84872419D02*
X214780076Y-84824800D01*
X214780076Y-84824800D02*
X214732457Y-84729561D01*
X214732457Y-84729561D02*
X214732457Y-84348609D01*
X214732457Y-84348609D02*
X214780076Y-84253371D01*
X214780076Y-84253371D02*
X214875314Y-84205752D01*
X214875314Y-84205752D02*
X215065790Y-84205752D01*
X215065790Y-84205752D02*
X215161028Y-84253371D01*
X215161028Y-84253371D02*
X215208647Y-84348609D01*
X215208647Y-84348609D02*
X215208647Y-84443847D01*
X215208647Y-84443847D02*
X214732457Y-84539085D01*
X215494362Y-84205752D02*
X215875314Y-84205752D01*
X215637219Y-83872419D02*
X215637219Y-84729561D01*
X215637219Y-84729561D02*
X215684838Y-84824800D01*
X215684838Y-84824800D02*
X215780076Y-84872419D01*
X215780076Y-84872419D02*
X215875314Y-84872419D01*
X140303884Y-135872419D02*
X140303884Y-134872419D01*
X140875312Y-135872419D02*
X140446741Y-135300990D01*
X140875312Y-134872419D02*
X140303884Y-135443847D01*
X141684836Y-135824800D02*
X141589598Y-135872419D01*
X141589598Y-135872419D02*
X141399122Y-135872419D01*
X141399122Y-135872419D02*
X141303884Y-135824800D01*
X141303884Y-135824800D02*
X141256265Y-135729561D01*
X141256265Y-135729561D02*
X141256265Y-135348609D01*
X141256265Y-135348609D02*
X141303884Y-135253371D01*
X141303884Y-135253371D02*
X141399122Y-135205752D01*
X141399122Y-135205752D02*
X141589598Y-135205752D01*
X141589598Y-135205752D02*
X141684836Y-135253371D01*
X141684836Y-135253371D02*
X141732455Y-135348609D01*
X141732455Y-135348609D02*
X141732455Y-135443847D01*
X141732455Y-135443847D02*
X141256265Y-135539085D01*
X142065789Y-135205752D02*
X142303884Y-135872419D01*
X142541979Y-135205752D02*
X142303884Y-135872419D01*
X142303884Y-135872419D02*
X142208646Y-136110514D01*
X142208646Y-136110514D02*
X142161027Y-136158133D01*
X142161027Y-136158133D02*
X142065789Y-136205752D01*
X143684837Y-135872419D02*
X143684837Y-134872419D01*
X143684837Y-134872419D02*
X144018170Y-135586704D01*
X144018170Y-135586704D02*
X144351503Y-134872419D01*
X144351503Y-134872419D02*
X144351503Y-135872419D01*
X145208646Y-135824800D02*
X145113408Y-135872419D01*
X145113408Y-135872419D02*
X144922932Y-135872419D01*
X144922932Y-135872419D02*
X144827694Y-135824800D01*
X144827694Y-135824800D02*
X144780075Y-135729561D01*
X144780075Y-135729561D02*
X144780075Y-135348609D01*
X144780075Y-135348609D02*
X144827694Y-135253371D01*
X144827694Y-135253371D02*
X144922932Y-135205752D01*
X144922932Y-135205752D02*
X145113408Y-135205752D01*
X145113408Y-135205752D02*
X145208646Y-135253371D01*
X145208646Y-135253371D02*
X145256265Y-135348609D01*
X145256265Y-135348609D02*
X145256265Y-135443847D01*
X145256265Y-135443847D02*
X144780075Y-135539085D01*
X145684837Y-135872419D02*
X145684837Y-135205752D01*
X145684837Y-135300990D02*
X145732456Y-135253371D01*
X145732456Y-135253371D02*
X145827694Y-135205752D01*
X145827694Y-135205752D02*
X145970551Y-135205752D01*
X145970551Y-135205752D02*
X146065789Y-135253371D01*
X146065789Y-135253371D02*
X146113408Y-135348609D01*
X146113408Y-135348609D02*
X146113408Y-135872419D01*
X146113408Y-135348609D02*
X146161027Y-135253371D01*
X146161027Y-135253371D02*
X146256265Y-135205752D01*
X146256265Y-135205752D02*
X146399122Y-135205752D01*
X146399122Y-135205752D02*
X146494361Y-135253371D01*
X146494361Y-135253371D02*
X146541980Y-135348609D01*
X146541980Y-135348609D02*
X146541980Y-135872419D01*
X147018170Y-135872419D02*
X147018170Y-134872419D01*
X147018170Y-135253371D02*
X147113408Y-135205752D01*
X147113408Y-135205752D02*
X147303884Y-135205752D01*
X147303884Y-135205752D02*
X147399122Y-135253371D01*
X147399122Y-135253371D02*
X147446741Y-135300990D01*
X147446741Y-135300990D02*
X147494360Y-135396228D01*
X147494360Y-135396228D02*
X147494360Y-135681942D01*
X147494360Y-135681942D02*
X147446741Y-135777180D01*
X147446741Y-135777180D02*
X147399122Y-135824800D01*
X147399122Y-135824800D02*
X147303884Y-135872419D01*
X147303884Y-135872419D02*
X147113408Y-135872419D01*
X147113408Y-135872419D02*
X147018170Y-135824800D01*
X147922932Y-135872419D02*
X147922932Y-135205752D01*
X147922932Y-135396228D02*
X147970551Y-135300990D01*
X147970551Y-135300990D02*
X148018170Y-135253371D01*
X148018170Y-135253371D02*
X148113408Y-135205752D01*
X148113408Y-135205752D02*
X148208646Y-135205752D01*
X148970551Y-135872419D02*
X148970551Y-135348609D01*
X148970551Y-135348609D02*
X148922932Y-135253371D01*
X148922932Y-135253371D02*
X148827694Y-135205752D01*
X148827694Y-135205752D02*
X148637218Y-135205752D01*
X148637218Y-135205752D02*
X148541980Y-135253371D01*
X148970551Y-135824800D02*
X148875313Y-135872419D01*
X148875313Y-135872419D02*
X148637218Y-135872419D01*
X148637218Y-135872419D02*
X148541980Y-135824800D01*
X148541980Y-135824800D02*
X148494361Y-135729561D01*
X148494361Y-135729561D02*
X148494361Y-135634323D01*
X148494361Y-135634323D02*
X148541980Y-135539085D01*
X148541980Y-135539085D02*
X148637218Y-135491466D01*
X148637218Y-135491466D02*
X148875313Y-135491466D01*
X148875313Y-135491466D02*
X148970551Y-135443847D01*
X149446742Y-135205752D02*
X149446742Y-135872419D01*
X149446742Y-135300990D02*
X149494361Y-135253371D01*
X149494361Y-135253371D02*
X149589599Y-135205752D01*
X149589599Y-135205752D02*
X149732456Y-135205752D01*
X149732456Y-135205752D02*
X149827694Y-135253371D01*
X149827694Y-135253371D02*
X149875313Y-135348609D01*
X149875313Y-135348609D02*
X149875313Y-135872419D01*
X150732456Y-135824800D02*
X150637218Y-135872419D01*
X150637218Y-135872419D02*
X150446742Y-135872419D01*
X150446742Y-135872419D02*
X150351504Y-135824800D01*
X150351504Y-135824800D02*
X150303885Y-135729561D01*
X150303885Y-135729561D02*
X150303885Y-135348609D01*
X150303885Y-135348609D02*
X150351504Y-135253371D01*
X150351504Y-135253371D02*
X150446742Y-135205752D01*
X150446742Y-135205752D02*
X150637218Y-135205752D01*
X150637218Y-135205752D02*
X150732456Y-135253371D01*
X150732456Y-135253371D02*
X150780075Y-135348609D01*
X150780075Y-135348609D02*
X150780075Y-135443847D01*
X150780075Y-135443847D02*
X150303885Y-135539085D01*
X64256265Y-39824800D02*
X64399122Y-39872419D01*
X64399122Y-39872419D02*
X64637217Y-39872419D01*
X64637217Y-39872419D02*
X64732455Y-39824800D01*
X64732455Y-39824800D02*
X64780074Y-39777180D01*
X64780074Y-39777180D02*
X64827693Y-39681942D01*
X64827693Y-39681942D02*
X64827693Y-39586704D01*
X64827693Y-39586704D02*
X64780074Y-39491466D01*
X64780074Y-39491466D02*
X64732455Y-39443847D01*
X64732455Y-39443847D02*
X64637217Y-39396228D01*
X64637217Y-39396228D02*
X64446741Y-39348609D01*
X64446741Y-39348609D02*
X64351503Y-39300990D01*
X64351503Y-39300990D02*
X64303884Y-39253371D01*
X64303884Y-39253371D02*
X64256265Y-39158133D01*
X64256265Y-39158133D02*
X64256265Y-39062895D01*
X64256265Y-39062895D02*
X64303884Y-38967657D01*
X64303884Y-38967657D02*
X64351503Y-38920038D01*
X64351503Y-38920038D02*
X64446741Y-38872419D01*
X64446741Y-38872419D02*
X64684836Y-38872419D01*
X64684836Y-38872419D02*
X64827693Y-38920038D01*
X65684836Y-39824800D02*
X65589598Y-39872419D01*
X65589598Y-39872419D02*
X65399122Y-39872419D01*
X65399122Y-39872419D02*
X65303884Y-39824800D01*
X65303884Y-39824800D02*
X65256265Y-39777180D01*
X65256265Y-39777180D02*
X65208646Y-39681942D01*
X65208646Y-39681942D02*
X65208646Y-39396228D01*
X65208646Y-39396228D02*
X65256265Y-39300990D01*
X65256265Y-39300990D02*
X65303884Y-39253371D01*
X65303884Y-39253371D02*
X65399122Y-39205752D01*
X65399122Y-39205752D02*
X65589598Y-39205752D01*
X65589598Y-39205752D02*
X65684836Y-39253371D01*
X66113408Y-39872419D02*
X66113408Y-39205752D01*
X66113408Y-39396228D02*
X66161027Y-39300990D01*
X66161027Y-39300990D02*
X66208646Y-39253371D01*
X66208646Y-39253371D02*
X66303884Y-39205752D01*
X66303884Y-39205752D02*
X66399122Y-39205752D01*
X67113408Y-39824800D02*
X67018170Y-39872419D01*
X67018170Y-39872419D02*
X66827694Y-39872419D01*
X66827694Y-39872419D02*
X66732456Y-39824800D01*
X66732456Y-39824800D02*
X66684837Y-39729561D01*
X66684837Y-39729561D02*
X66684837Y-39348609D01*
X66684837Y-39348609D02*
X66732456Y-39253371D01*
X66732456Y-39253371D02*
X66827694Y-39205752D01*
X66827694Y-39205752D02*
X67018170Y-39205752D01*
X67018170Y-39205752D02*
X67113408Y-39253371D01*
X67113408Y-39253371D02*
X67161027Y-39348609D01*
X67161027Y-39348609D02*
X67161027Y-39443847D01*
X67161027Y-39443847D02*
X66684837Y-39539085D01*
X67970551Y-39824800D02*
X67875313Y-39872419D01*
X67875313Y-39872419D02*
X67684837Y-39872419D01*
X67684837Y-39872419D02*
X67589599Y-39824800D01*
X67589599Y-39824800D02*
X67541980Y-39729561D01*
X67541980Y-39729561D02*
X67541980Y-39348609D01*
X67541980Y-39348609D02*
X67589599Y-39253371D01*
X67589599Y-39253371D02*
X67684837Y-39205752D01*
X67684837Y-39205752D02*
X67875313Y-39205752D01*
X67875313Y-39205752D02*
X67970551Y-39253371D01*
X67970551Y-39253371D02*
X68018170Y-39348609D01*
X68018170Y-39348609D02*
X68018170Y-39443847D01*
X68018170Y-39443847D02*
X67541980Y-39539085D01*
X68446742Y-39205752D02*
X68446742Y-39872419D01*
X68446742Y-39300990D02*
X68494361Y-39253371D01*
X68494361Y-39253371D02*
X68589599Y-39205752D01*
X68589599Y-39205752D02*
X68732456Y-39205752D01*
X68732456Y-39205752D02*
X68827694Y-39253371D01*
X68827694Y-39253371D02*
X68875313Y-39348609D01*
X68875313Y-39348609D02*
X68875313Y-39872419D01*
X70446742Y-39348609D02*
X70589599Y-39396228D01*
X70589599Y-39396228D02*
X70637218Y-39443847D01*
X70637218Y-39443847D02*
X70684837Y-39539085D01*
X70684837Y-39539085D02*
X70684837Y-39681942D01*
X70684837Y-39681942D02*
X70637218Y-39777180D01*
X70637218Y-39777180D02*
X70589599Y-39824800D01*
X70589599Y-39824800D02*
X70494361Y-39872419D01*
X70494361Y-39872419D02*
X70113409Y-39872419D01*
X70113409Y-39872419D02*
X70113409Y-38872419D01*
X70113409Y-38872419D02*
X70446742Y-38872419D01*
X70446742Y-38872419D02*
X70541980Y-38920038D01*
X70541980Y-38920038D02*
X70589599Y-38967657D01*
X70589599Y-38967657D02*
X70637218Y-39062895D01*
X70637218Y-39062895D02*
X70637218Y-39158133D01*
X70637218Y-39158133D02*
X70589599Y-39253371D01*
X70589599Y-39253371D02*
X70541980Y-39300990D01*
X70541980Y-39300990D02*
X70446742Y-39348609D01*
X70446742Y-39348609D02*
X70113409Y-39348609D01*
X71113409Y-39872419D02*
X71113409Y-39205752D01*
X71113409Y-39396228D02*
X71161028Y-39300990D01*
X71161028Y-39300990D02*
X71208647Y-39253371D01*
X71208647Y-39253371D02*
X71303885Y-39205752D01*
X71303885Y-39205752D02*
X71399123Y-39205752D01*
X71732457Y-39872419D02*
X71732457Y-39205752D01*
X71732457Y-38872419D02*
X71684838Y-38920038D01*
X71684838Y-38920038D02*
X71732457Y-38967657D01*
X71732457Y-38967657D02*
X71780076Y-38920038D01*
X71780076Y-38920038D02*
X71732457Y-38872419D01*
X71732457Y-38872419D02*
X71732457Y-38967657D01*
X72637218Y-39205752D02*
X72637218Y-40015276D01*
X72637218Y-40015276D02*
X72589599Y-40110514D01*
X72589599Y-40110514D02*
X72541980Y-40158133D01*
X72541980Y-40158133D02*
X72446742Y-40205752D01*
X72446742Y-40205752D02*
X72303885Y-40205752D01*
X72303885Y-40205752D02*
X72208647Y-40158133D01*
X72637218Y-39824800D02*
X72541980Y-39872419D01*
X72541980Y-39872419D02*
X72351504Y-39872419D01*
X72351504Y-39872419D02*
X72256266Y-39824800D01*
X72256266Y-39824800D02*
X72208647Y-39777180D01*
X72208647Y-39777180D02*
X72161028Y-39681942D01*
X72161028Y-39681942D02*
X72161028Y-39396228D01*
X72161028Y-39396228D02*
X72208647Y-39300990D01*
X72208647Y-39300990D02*
X72256266Y-39253371D01*
X72256266Y-39253371D02*
X72351504Y-39205752D01*
X72351504Y-39205752D02*
X72541980Y-39205752D01*
X72541980Y-39205752D02*
X72637218Y-39253371D01*
X73113409Y-39872419D02*
X73113409Y-38872419D01*
X73541980Y-39872419D02*
X73541980Y-39348609D01*
X73541980Y-39348609D02*
X73494361Y-39253371D01*
X73494361Y-39253371D02*
X73399123Y-39205752D01*
X73399123Y-39205752D02*
X73256266Y-39205752D01*
X73256266Y-39205752D02*
X73161028Y-39253371D01*
X73161028Y-39253371D02*
X73113409Y-39300990D01*
X73875314Y-39205752D02*
X74256266Y-39205752D01*
X74018171Y-38872419D02*
X74018171Y-39729561D01*
X74018171Y-39729561D02*
X74065790Y-39824800D01*
X74065790Y-39824800D02*
X74161028Y-39872419D01*
X74161028Y-39872419D02*
X74256266Y-39872419D01*
X74589600Y-39205752D02*
X74589600Y-39872419D01*
X74589600Y-39300990D02*
X74637219Y-39253371D01*
X74637219Y-39253371D02*
X74732457Y-39205752D01*
X74732457Y-39205752D02*
X74875314Y-39205752D01*
X74875314Y-39205752D02*
X74970552Y-39253371D01*
X74970552Y-39253371D02*
X75018171Y-39348609D01*
X75018171Y-39348609D02*
X75018171Y-39872419D01*
X75875314Y-39824800D02*
X75780076Y-39872419D01*
X75780076Y-39872419D02*
X75589600Y-39872419D01*
X75589600Y-39872419D02*
X75494362Y-39824800D01*
X75494362Y-39824800D02*
X75446743Y-39729561D01*
X75446743Y-39729561D02*
X75446743Y-39348609D01*
X75446743Y-39348609D02*
X75494362Y-39253371D01*
X75494362Y-39253371D02*
X75589600Y-39205752D01*
X75589600Y-39205752D02*
X75780076Y-39205752D01*
X75780076Y-39205752D02*
X75875314Y-39253371D01*
X75875314Y-39253371D02*
X75922933Y-39348609D01*
X75922933Y-39348609D02*
X75922933Y-39443847D01*
X75922933Y-39443847D02*
X75446743Y-39539085D01*
X76303886Y-39824800D02*
X76399124Y-39872419D01*
X76399124Y-39872419D02*
X76589600Y-39872419D01*
X76589600Y-39872419D02*
X76684838Y-39824800D01*
X76684838Y-39824800D02*
X76732457Y-39729561D01*
X76732457Y-39729561D02*
X76732457Y-39681942D01*
X76732457Y-39681942D02*
X76684838Y-39586704D01*
X76684838Y-39586704D02*
X76589600Y-39539085D01*
X76589600Y-39539085D02*
X76446743Y-39539085D01*
X76446743Y-39539085D02*
X76351505Y-39491466D01*
X76351505Y-39491466D02*
X76303886Y-39396228D01*
X76303886Y-39396228D02*
X76303886Y-39348609D01*
X76303886Y-39348609D02*
X76351505Y-39253371D01*
X76351505Y-39253371D02*
X76446743Y-39205752D01*
X76446743Y-39205752D02*
X76589600Y-39205752D01*
X76589600Y-39205752D02*
X76684838Y-39253371D01*
X77113410Y-39824800D02*
X77208648Y-39872419D01*
X77208648Y-39872419D02*
X77399124Y-39872419D01*
X77399124Y-39872419D02*
X77494362Y-39824800D01*
X77494362Y-39824800D02*
X77541981Y-39729561D01*
X77541981Y-39729561D02*
X77541981Y-39681942D01*
X77541981Y-39681942D02*
X77494362Y-39586704D01*
X77494362Y-39586704D02*
X77399124Y-39539085D01*
X77399124Y-39539085D02*
X77256267Y-39539085D01*
X77256267Y-39539085D02*
X77161029Y-39491466D01*
X77161029Y-39491466D02*
X77113410Y-39396228D01*
X77113410Y-39396228D02*
X77113410Y-39348609D01*
X77113410Y-39348609D02*
X77161029Y-39253371D01*
X77161029Y-39253371D02*
X77256267Y-39205752D01*
X77256267Y-39205752D02*
X77399124Y-39205752D01*
X77399124Y-39205752D02*
X77494362Y-39253371D01*
D12*
X138409819Y-152813333D02*
X139124104Y-152813333D01*
X139124104Y-152813333D02*
X139266961Y-152860952D01*
X139266961Y-152860952D02*
X139362200Y-152956190D01*
X139362200Y-152956190D02*
X139409819Y-153099047D01*
X139409819Y-153099047D02*
X139409819Y-153194285D01*
X138743152Y-151908571D02*
X139409819Y-151908571D01*
X138362200Y-152146666D02*
X139076485Y-152384761D01*
X139076485Y-152384761D02*
X139076485Y-151765714D01*
X93494819Y-22761904D02*
X94304342Y-22761904D01*
X94304342Y-22761904D02*
X94399580Y-22714285D01*
X94399580Y-22714285D02*
X94447200Y-22666666D01*
X94447200Y-22666666D02*
X94494819Y-22571428D01*
X94494819Y-22571428D02*
X94494819Y-22380952D01*
X94494819Y-22380952D02*
X94447200Y-22285714D01*
X94447200Y-22285714D02*
X94399580Y-22238095D01*
X94399580Y-22238095D02*
X94304342Y-22190476D01*
X94304342Y-22190476D02*
X93494819Y-22190476D01*
X94494819Y-21190476D02*
X94494819Y-21761904D01*
X94494819Y-21476190D02*
X93494819Y-21476190D01*
X93494819Y-21476190D02*
X93637676Y-21571428D01*
X93637676Y-21571428D02*
X93732914Y-21666666D01*
X93732914Y-21666666D02*
X93780533Y-21761904D01*
X64077200Y-64873332D02*
X64124819Y-64730475D01*
X64124819Y-64730475D02*
X64124819Y-64492380D01*
X64124819Y-64492380D02*
X64077200Y-64397142D01*
X64077200Y-64397142D02*
X64029580Y-64349523D01*
X64029580Y-64349523D02*
X63934342Y-64301904D01*
X63934342Y-64301904D02*
X63839104Y-64301904D01*
X63839104Y-64301904D02*
X63743866Y-64349523D01*
X63743866Y-64349523D02*
X63696247Y-64397142D01*
X63696247Y-64397142D02*
X63648628Y-64492380D01*
X63648628Y-64492380D02*
X63601009Y-64682856D01*
X63601009Y-64682856D02*
X63553390Y-64778094D01*
X63553390Y-64778094D02*
X63505771Y-64825713D01*
X63505771Y-64825713D02*
X63410533Y-64873332D01*
X63410533Y-64873332D02*
X63315295Y-64873332D01*
X63315295Y-64873332D02*
X63220057Y-64825713D01*
X63220057Y-64825713D02*
X63172438Y-64778094D01*
X63172438Y-64778094D02*
X63124819Y-64682856D01*
X63124819Y-64682856D02*
X63124819Y-64444761D01*
X63124819Y-64444761D02*
X63172438Y-64301904D01*
X63124819Y-63968570D02*
X64124819Y-63730475D01*
X64124819Y-63730475D02*
X63410533Y-63539999D01*
X63410533Y-63539999D02*
X64124819Y-63349523D01*
X64124819Y-63349523D02*
X63124819Y-63111428D01*
X64124819Y-62206666D02*
X64124819Y-62778094D01*
X64124819Y-62492380D02*
X63124819Y-62492380D01*
X63124819Y-62492380D02*
X63267676Y-62587618D01*
X63267676Y-62587618D02*
X63362914Y-62682856D01*
X63362914Y-62682856D02*
X63410533Y-62778094D01*
X238238095Y-152404819D02*
X238238095Y-151404819D01*
X238238095Y-151881009D02*
X238809523Y-151881009D01*
X238809523Y-152404819D02*
X238809523Y-151404819D01*
X239714285Y-151738152D02*
X239714285Y-152404819D01*
X239476190Y-151357200D02*
X239238095Y-152071485D01*
X239238095Y-152071485D02*
X239857142Y-152071485D01*
X68238095Y-20404819D02*
X68238095Y-19404819D01*
X68238095Y-19881009D02*
X68809523Y-19881009D01*
X68809523Y-20404819D02*
X68809523Y-19404819D01*
X69809523Y-20404819D02*
X69238095Y-20404819D01*
X69523809Y-20404819D02*
X69523809Y-19404819D01*
X69523809Y-19404819D02*
X69428571Y-19547676D01*
X69428571Y-19547676D02*
X69333333Y-19642914D01*
X69333333Y-19642914D02*
X69238095Y-19690533D01*
X233174819Y-37816666D02*
X232698628Y-38149999D01*
X233174819Y-38388094D02*
X232174819Y-38388094D01*
X232174819Y-38388094D02*
X232174819Y-38007142D01*
X232174819Y-38007142D02*
X232222438Y-37911904D01*
X232222438Y-37911904D02*
X232270057Y-37864285D01*
X232270057Y-37864285D02*
X232365295Y-37816666D01*
X232365295Y-37816666D02*
X232508152Y-37816666D01*
X232508152Y-37816666D02*
X232603390Y-37864285D01*
X232603390Y-37864285D02*
X232651009Y-37911904D01*
X232651009Y-37911904D02*
X232698628Y-38007142D01*
X232698628Y-38007142D02*
X232698628Y-38388094D01*
X232174819Y-37483332D02*
X232174819Y-36864285D01*
X232174819Y-36864285D02*
X232555771Y-37197618D01*
X232555771Y-37197618D02*
X232555771Y-37054761D01*
X232555771Y-37054761D02*
X232603390Y-36959523D01*
X232603390Y-36959523D02*
X232651009Y-36911904D01*
X232651009Y-36911904D02*
X232746247Y-36864285D01*
X232746247Y-36864285D02*
X232984342Y-36864285D01*
X232984342Y-36864285D02*
X233079580Y-36911904D01*
X233079580Y-36911904D02*
X233127200Y-36959523D01*
X233127200Y-36959523D02*
X233174819Y-37054761D01*
X233174819Y-37054761D02*
X233174819Y-37340475D01*
X233174819Y-37340475D02*
X233127200Y-37435713D01*
X233127200Y-37435713D02*
X233079580Y-37483332D01*
X200059580Y-90666666D02*
X200107200Y-90714285D01*
X200107200Y-90714285D02*
X200154819Y-90857142D01*
X200154819Y-90857142D02*
X200154819Y-90952380D01*
X200154819Y-90952380D02*
X200107200Y-91095237D01*
X200107200Y-91095237D02*
X200011961Y-91190475D01*
X200011961Y-91190475D02*
X199916723Y-91238094D01*
X199916723Y-91238094D02*
X199726247Y-91285713D01*
X199726247Y-91285713D02*
X199583390Y-91285713D01*
X199583390Y-91285713D02*
X199392914Y-91238094D01*
X199392914Y-91238094D02*
X199297676Y-91190475D01*
X199297676Y-91190475D02*
X199202438Y-91095237D01*
X199202438Y-91095237D02*
X199154819Y-90952380D01*
X199154819Y-90952380D02*
X199154819Y-90857142D01*
X199154819Y-90857142D02*
X199202438Y-90714285D01*
X199202438Y-90714285D02*
X199250057Y-90666666D01*
X199250057Y-90285713D02*
X199202438Y-90238094D01*
X199202438Y-90238094D02*
X199154819Y-90142856D01*
X199154819Y-90142856D02*
X199154819Y-89904761D01*
X199154819Y-89904761D02*
X199202438Y-89809523D01*
X199202438Y-89809523D02*
X199250057Y-89761904D01*
X199250057Y-89761904D02*
X199345295Y-89714285D01*
X199345295Y-89714285D02*
X199440533Y-89714285D01*
X199440533Y-89714285D02*
X199583390Y-89761904D01*
X199583390Y-89761904D02*
X200154819Y-90333332D01*
X200154819Y-90333332D02*
X200154819Y-89714285D01*
X70604819Y-75908333D02*
X71319104Y-75908333D01*
X71319104Y-75908333D02*
X71461961Y-75955952D01*
X71461961Y-75955952D02*
X71557200Y-76051190D01*
X71557200Y-76051190D02*
X71604819Y-76194047D01*
X71604819Y-76194047D02*
X71604819Y-76289285D01*
X70604819Y-74955952D02*
X70604819Y-75432142D01*
X70604819Y-75432142D02*
X71081009Y-75479761D01*
X71081009Y-75479761D02*
X71033390Y-75432142D01*
X71033390Y-75432142D02*
X70985771Y-75336904D01*
X70985771Y-75336904D02*
X70985771Y-75098809D01*
X70985771Y-75098809D02*
X71033390Y-75003571D01*
X71033390Y-75003571D02*
X71081009Y-74955952D01*
X71081009Y-74955952D02*
X71176247Y-74908333D01*
X71176247Y-74908333D02*
X71414342Y-74908333D01*
X71414342Y-74908333D02*
X71509580Y-74955952D01*
X71509580Y-74955952D02*
X71557200Y-75003571D01*
X71557200Y-75003571D02*
X71604819Y-75098809D01*
X71604819Y-75098809D02*
X71604819Y-75336904D01*
X71604819Y-75336904D02*
X71557200Y-75432142D01*
X71557200Y-75432142D02*
X71509580Y-75479761D01*
X230954819Y-25738094D02*
X229954819Y-25738094D01*
X229954819Y-25738094D02*
X229954819Y-25499999D01*
X229954819Y-25499999D02*
X230002438Y-25357142D01*
X230002438Y-25357142D02*
X230097676Y-25261904D01*
X230097676Y-25261904D02*
X230192914Y-25214285D01*
X230192914Y-25214285D02*
X230383390Y-25166666D01*
X230383390Y-25166666D02*
X230526247Y-25166666D01*
X230526247Y-25166666D02*
X230716723Y-25214285D01*
X230716723Y-25214285D02*
X230811961Y-25261904D01*
X230811961Y-25261904D02*
X230907200Y-25357142D01*
X230907200Y-25357142D02*
X230954819Y-25499999D01*
X230954819Y-25499999D02*
X230954819Y-25738094D01*
X230954819Y-24214285D02*
X230954819Y-24785713D01*
X230954819Y-24499999D02*
X229954819Y-24499999D01*
X229954819Y-24499999D02*
X230097676Y-24595237D01*
X230097676Y-24595237D02*
X230192914Y-24690475D01*
X230192914Y-24690475D02*
X230240533Y-24785713D01*
X160659580Y-88666666D02*
X160707200Y-88714285D01*
X160707200Y-88714285D02*
X160754819Y-88857142D01*
X160754819Y-88857142D02*
X160754819Y-88952380D01*
X160754819Y-88952380D02*
X160707200Y-89095237D01*
X160707200Y-89095237D02*
X160611961Y-89190475D01*
X160611961Y-89190475D02*
X160516723Y-89238094D01*
X160516723Y-89238094D02*
X160326247Y-89285713D01*
X160326247Y-89285713D02*
X160183390Y-89285713D01*
X160183390Y-89285713D02*
X159992914Y-89238094D01*
X159992914Y-89238094D02*
X159897676Y-89190475D01*
X159897676Y-89190475D02*
X159802438Y-89095237D01*
X159802438Y-89095237D02*
X159754819Y-88952380D01*
X159754819Y-88952380D02*
X159754819Y-88857142D01*
X159754819Y-88857142D02*
X159802438Y-88714285D01*
X159802438Y-88714285D02*
X159850057Y-88666666D01*
X160754819Y-88190475D02*
X160754819Y-87999999D01*
X160754819Y-87999999D02*
X160707200Y-87904761D01*
X160707200Y-87904761D02*
X160659580Y-87857142D01*
X160659580Y-87857142D02*
X160516723Y-87761904D01*
X160516723Y-87761904D02*
X160326247Y-87714285D01*
X160326247Y-87714285D02*
X159945295Y-87714285D01*
X159945295Y-87714285D02*
X159850057Y-87761904D01*
X159850057Y-87761904D02*
X159802438Y-87809523D01*
X159802438Y-87809523D02*
X159754819Y-87904761D01*
X159754819Y-87904761D02*
X159754819Y-88095237D01*
X159754819Y-88095237D02*
X159802438Y-88190475D01*
X159802438Y-88190475D02*
X159850057Y-88238094D01*
X159850057Y-88238094D02*
X159945295Y-88285713D01*
X159945295Y-88285713D02*
X160183390Y-88285713D01*
X160183390Y-88285713D02*
X160278628Y-88238094D01*
X160278628Y-88238094D02*
X160326247Y-88190475D01*
X160326247Y-88190475D02*
X160373866Y-88095237D01*
X160373866Y-88095237D02*
X160373866Y-87904761D01*
X160373866Y-87904761D02*
X160326247Y-87809523D01*
X160326247Y-87809523D02*
X160278628Y-87761904D01*
X160278628Y-87761904D02*
X160183390Y-87714285D01*
X68238095Y-153404819D02*
X68238095Y-152404819D01*
X68238095Y-152881009D02*
X68809523Y-152881009D01*
X68809523Y-153404819D02*
X68809523Y-152404819D01*
X69190476Y-152404819D02*
X69809523Y-152404819D01*
X69809523Y-152404819D02*
X69476190Y-152785771D01*
X69476190Y-152785771D02*
X69619047Y-152785771D01*
X69619047Y-152785771D02*
X69714285Y-152833390D01*
X69714285Y-152833390D02*
X69761904Y-152881009D01*
X69761904Y-152881009D02*
X69809523Y-152976247D01*
X69809523Y-152976247D02*
X69809523Y-153214342D01*
X69809523Y-153214342D02*
X69761904Y-153309580D01*
X69761904Y-153309580D02*
X69714285Y-153357200D01*
X69714285Y-153357200D02*
X69619047Y-153404819D01*
X69619047Y-153404819D02*
X69333333Y-153404819D01*
X69333333Y-153404819D02*
X69238095Y-153357200D01*
X69238095Y-153357200D02*
X69190476Y-153309580D01*
X95258095Y-20814819D02*
X95258095Y-21624342D01*
X95258095Y-21624342D02*
X95305714Y-21719580D01*
X95305714Y-21719580D02*
X95353333Y-21767200D01*
X95353333Y-21767200D02*
X95448571Y-21814819D01*
X95448571Y-21814819D02*
X95639047Y-21814819D01*
X95639047Y-21814819D02*
X95734285Y-21767200D01*
X95734285Y-21767200D02*
X95781904Y-21719580D01*
X95781904Y-21719580D02*
X95829523Y-21624342D01*
X95829523Y-21624342D02*
X95829523Y-20814819D01*
X96258095Y-20910057D02*
X96305714Y-20862438D01*
X96305714Y-20862438D02*
X96400952Y-20814819D01*
X96400952Y-20814819D02*
X96639047Y-20814819D01*
X96639047Y-20814819D02*
X96734285Y-20862438D01*
X96734285Y-20862438D02*
X96781904Y-20910057D01*
X96781904Y-20910057D02*
X96829523Y-21005295D01*
X96829523Y-21005295D02*
X96829523Y-21100533D01*
X96829523Y-21100533D02*
X96781904Y-21243390D01*
X96781904Y-21243390D02*
X96210476Y-21814819D01*
X96210476Y-21814819D02*
X96829523Y-21814819D01*
X81824819Y-88166666D02*
X81348628Y-88499999D01*
X81824819Y-88738094D02*
X80824819Y-88738094D01*
X80824819Y-88738094D02*
X80824819Y-88357142D01*
X80824819Y-88357142D02*
X80872438Y-88261904D01*
X80872438Y-88261904D02*
X80920057Y-88214285D01*
X80920057Y-88214285D02*
X81015295Y-88166666D01*
X81015295Y-88166666D02*
X81158152Y-88166666D01*
X81158152Y-88166666D02*
X81253390Y-88214285D01*
X81253390Y-88214285D02*
X81301009Y-88261904D01*
X81301009Y-88261904D02*
X81348628Y-88357142D01*
X81348628Y-88357142D02*
X81348628Y-88738094D01*
X81253390Y-87595237D02*
X81205771Y-87690475D01*
X81205771Y-87690475D02*
X81158152Y-87738094D01*
X81158152Y-87738094D02*
X81062914Y-87785713D01*
X81062914Y-87785713D02*
X81015295Y-87785713D01*
X81015295Y-87785713D02*
X80920057Y-87738094D01*
X80920057Y-87738094D02*
X80872438Y-87690475D01*
X80872438Y-87690475D02*
X80824819Y-87595237D01*
X80824819Y-87595237D02*
X80824819Y-87404761D01*
X80824819Y-87404761D02*
X80872438Y-87309523D01*
X80872438Y-87309523D02*
X80920057Y-87261904D01*
X80920057Y-87261904D02*
X81015295Y-87214285D01*
X81015295Y-87214285D02*
X81062914Y-87214285D01*
X81062914Y-87214285D02*
X81158152Y-87261904D01*
X81158152Y-87261904D02*
X81205771Y-87309523D01*
X81205771Y-87309523D02*
X81253390Y-87404761D01*
X81253390Y-87404761D02*
X81253390Y-87595237D01*
X81253390Y-87595237D02*
X81301009Y-87690475D01*
X81301009Y-87690475D02*
X81348628Y-87738094D01*
X81348628Y-87738094D02*
X81443866Y-87785713D01*
X81443866Y-87785713D02*
X81634342Y-87785713D01*
X81634342Y-87785713D02*
X81729580Y-87738094D01*
X81729580Y-87738094D02*
X81777200Y-87690475D01*
X81777200Y-87690475D02*
X81824819Y-87595237D01*
X81824819Y-87595237D02*
X81824819Y-87404761D01*
X81824819Y-87404761D02*
X81777200Y-87309523D01*
X81777200Y-87309523D02*
X81729580Y-87261904D01*
X81729580Y-87261904D02*
X81634342Y-87214285D01*
X81634342Y-87214285D02*
X81443866Y-87214285D01*
X81443866Y-87214285D02*
X81348628Y-87261904D01*
X81348628Y-87261904D02*
X81301009Y-87309523D01*
X81301009Y-87309523D02*
X81253390Y-87404761D01*
X162276309Y-93038628D02*
X162276309Y-93514819D01*
X161942976Y-92514819D02*
X162276309Y-93038628D01*
X162276309Y-93038628D02*
X162609642Y-92514819D01*
X162895357Y-92610057D02*
X162942976Y-92562438D01*
X162942976Y-92562438D02*
X163038214Y-92514819D01*
X163038214Y-92514819D02*
X163276309Y-92514819D01*
X163276309Y-92514819D02*
X163371547Y-92562438D01*
X163371547Y-92562438D02*
X163419166Y-92610057D01*
X163419166Y-92610057D02*
X163466785Y-92705295D01*
X163466785Y-92705295D02*
X163466785Y-92800533D01*
X163466785Y-92800533D02*
X163419166Y-92943390D01*
X163419166Y-92943390D02*
X162847738Y-93514819D01*
X162847738Y-93514819D02*
X163466785Y-93514819D01*
X206766667Y-68247200D02*
X206909524Y-68294819D01*
X206909524Y-68294819D02*
X207147619Y-68294819D01*
X207147619Y-68294819D02*
X207242857Y-68247200D01*
X207242857Y-68247200D02*
X207290476Y-68199580D01*
X207290476Y-68199580D02*
X207338095Y-68104342D01*
X207338095Y-68104342D02*
X207338095Y-68009104D01*
X207338095Y-68009104D02*
X207290476Y-67913866D01*
X207290476Y-67913866D02*
X207242857Y-67866247D01*
X207242857Y-67866247D02*
X207147619Y-67818628D01*
X207147619Y-67818628D02*
X206957143Y-67771009D01*
X206957143Y-67771009D02*
X206861905Y-67723390D01*
X206861905Y-67723390D02*
X206814286Y-67675771D01*
X206814286Y-67675771D02*
X206766667Y-67580533D01*
X206766667Y-67580533D02*
X206766667Y-67485295D01*
X206766667Y-67485295D02*
X206814286Y-67390057D01*
X206814286Y-67390057D02*
X206861905Y-67342438D01*
X206861905Y-67342438D02*
X206957143Y-67294819D01*
X206957143Y-67294819D02*
X207195238Y-67294819D01*
X207195238Y-67294819D02*
X207338095Y-67342438D01*
X207671429Y-67294819D02*
X207909524Y-68294819D01*
X207909524Y-68294819D02*
X208100000Y-67580533D01*
X208100000Y-67580533D02*
X208290476Y-68294819D01*
X208290476Y-68294819D02*
X208528572Y-67294819D01*
X208861905Y-67390057D02*
X208909524Y-67342438D01*
X208909524Y-67342438D02*
X209004762Y-67294819D01*
X209004762Y-67294819D02*
X209242857Y-67294819D01*
X209242857Y-67294819D02*
X209338095Y-67342438D01*
X209338095Y-67342438D02*
X209385714Y-67390057D01*
X209385714Y-67390057D02*
X209433333Y-67485295D01*
X209433333Y-67485295D02*
X209433333Y-67580533D01*
X209433333Y-67580533D02*
X209385714Y-67723390D01*
X209385714Y-67723390D02*
X208814286Y-68294819D01*
X208814286Y-68294819D02*
X209433333Y-68294819D01*
X183238095Y-108804819D02*
X183238095Y-109614342D01*
X183238095Y-109614342D02*
X183285714Y-109709580D01*
X183285714Y-109709580D02*
X183333333Y-109757200D01*
X183333333Y-109757200D02*
X183428571Y-109804819D01*
X183428571Y-109804819D02*
X183619047Y-109804819D01*
X183619047Y-109804819D02*
X183714285Y-109757200D01*
X183714285Y-109757200D02*
X183761904Y-109709580D01*
X183761904Y-109709580D02*
X183809523Y-109614342D01*
X183809523Y-109614342D02*
X183809523Y-108804819D01*
X184190476Y-108804819D02*
X184809523Y-108804819D01*
X184809523Y-108804819D02*
X184476190Y-109185771D01*
X184476190Y-109185771D02*
X184619047Y-109185771D01*
X184619047Y-109185771D02*
X184714285Y-109233390D01*
X184714285Y-109233390D02*
X184761904Y-109281009D01*
X184761904Y-109281009D02*
X184809523Y-109376247D01*
X184809523Y-109376247D02*
X184809523Y-109614342D01*
X184809523Y-109614342D02*
X184761904Y-109709580D01*
X184761904Y-109709580D02*
X184714285Y-109757200D01*
X184714285Y-109757200D02*
X184619047Y-109804819D01*
X184619047Y-109804819D02*
X184333333Y-109804819D01*
X184333333Y-109804819D02*
X184238095Y-109757200D01*
X184238095Y-109757200D02*
X184190476Y-109709580D01*
X76824819Y-88166666D02*
X76348628Y-88499999D01*
X76824819Y-88738094D02*
X75824819Y-88738094D01*
X75824819Y-88738094D02*
X75824819Y-88357142D01*
X75824819Y-88357142D02*
X75872438Y-88261904D01*
X75872438Y-88261904D02*
X75920057Y-88214285D01*
X75920057Y-88214285D02*
X76015295Y-88166666D01*
X76015295Y-88166666D02*
X76158152Y-88166666D01*
X76158152Y-88166666D02*
X76253390Y-88214285D01*
X76253390Y-88214285D02*
X76301009Y-88261904D01*
X76301009Y-88261904D02*
X76348628Y-88357142D01*
X76348628Y-88357142D02*
X76348628Y-88738094D01*
X75824819Y-87833332D02*
X75824819Y-87166666D01*
X75824819Y-87166666D02*
X76824819Y-87595237D01*
X202166666Y-108179819D02*
X202166666Y-108894104D01*
X202166666Y-108894104D02*
X202119047Y-109036961D01*
X202119047Y-109036961D02*
X202023809Y-109132200D01*
X202023809Y-109132200D02*
X201880952Y-109179819D01*
X201880952Y-109179819D02*
X201785714Y-109179819D01*
X202547619Y-108179819D02*
X203166666Y-108179819D01*
X203166666Y-108179819D02*
X202833333Y-108560771D01*
X202833333Y-108560771D02*
X202976190Y-108560771D01*
X202976190Y-108560771D02*
X203071428Y-108608390D01*
X203071428Y-108608390D02*
X203119047Y-108656009D01*
X203119047Y-108656009D02*
X203166666Y-108751247D01*
X203166666Y-108751247D02*
X203166666Y-108989342D01*
X203166666Y-108989342D02*
X203119047Y-109084580D01*
X203119047Y-109084580D02*
X203071428Y-109132200D01*
X203071428Y-109132200D02*
X202976190Y-109179819D01*
X202976190Y-109179819D02*
X202690476Y-109179819D01*
X202690476Y-109179819D02*
X202595238Y-109132200D01*
X202595238Y-109132200D02*
X202547619Y-109084580D01*
X207059580Y-90666666D02*
X207107200Y-90714285D01*
X207107200Y-90714285D02*
X207154819Y-90857142D01*
X207154819Y-90857142D02*
X207154819Y-90952380D01*
X207154819Y-90952380D02*
X207107200Y-91095237D01*
X207107200Y-91095237D02*
X207011961Y-91190475D01*
X207011961Y-91190475D02*
X206916723Y-91238094D01*
X206916723Y-91238094D02*
X206726247Y-91285713D01*
X206726247Y-91285713D02*
X206583390Y-91285713D01*
X206583390Y-91285713D02*
X206392914Y-91238094D01*
X206392914Y-91238094D02*
X206297676Y-91190475D01*
X206297676Y-91190475D02*
X206202438Y-91095237D01*
X206202438Y-91095237D02*
X206154819Y-90952380D01*
X206154819Y-90952380D02*
X206154819Y-90857142D01*
X206154819Y-90857142D02*
X206202438Y-90714285D01*
X206202438Y-90714285D02*
X206250057Y-90666666D01*
X207154819Y-89714285D02*
X207154819Y-90285713D01*
X207154819Y-89999999D02*
X206154819Y-89999999D01*
X206154819Y-89999999D02*
X206297676Y-90095237D01*
X206297676Y-90095237D02*
X206392914Y-90190475D01*
X206392914Y-90190475D02*
X206440533Y-90285713D01*
X136659580Y-88666666D02*
X136707200Y-88714285D01*
X136707200Y-88714285D02*
X136754819Y-88857142D01*
X136754819Y-88857142D02*
X136754819Y-88952380D01*
X136754819Y-88952380D02*
X136707200Y-89095237D01*
X136707200Y-89095237D02*
X136611961Y-89190475D01*
X136611961Y-89190475D02*
X136516723Y-89238094D01*
X136516723Y-89238094D02*
X136326247Y-89285713D01*
X136326247Y-89285713D02*
X136183390Y-89285713D01*
X136183390Y-89285713D02*
X135992914Y-89238094D01*
X135992914Y-89238094D02*
X135897676Y-89190475D01*
X135897676Y-89190475D02*
X135802438Y-89095237D01*
X135802438Y-89095237D02*
X135754819Y-88952380D01*
X135754819Y-88952380D02*
X135754819Y-88857142D01*
X135754819Y-88857142D02*
X135802438Y-88714285D01*
X135802438Y-88714285D02*
X135850057Y-88666666D01*
X135754819Y-88333332D02*
X135754819Y-87666666D01*
X135754819Y-87666666D02*
X136754819Y-88095237D01*
X154766667Y-68247200D02*
X154909524Y-68294819D01*
X154909524Y-68294819D02*
X155147619Y-68294819D01*
X155147619Y-68294819D02*
X155242857Y-68247200D01*
X155242857Y-68247200D02*
X155290476Y-68199580D01*
X155290476Y-68199580D02*
X155338095Y-68104342D01*
X155338095Y-68104342D02*
X155338095Y-68009104D01*
X155338095Y-68009104D02*
X155290476Y-67913866D01*
X155290476Y-67913866D02*
X155242857Y-67866247D01*
X155242857Y-67866247D02*
X155147619Y-67818628D01*
X155147619Y-67818628D02*
X154957143Y-67771009D01*
X154957143Y-67771009D02*
X154861905Y-67723390D01*
X154861905Y-67723390D02*
X154814286Y-67675771D01*
X154814286Y-67675771D02*
X154766667Y-67580533D01*
X154766667Y-67580533D02*
X154766667Y-67485295D01*
X154766667Y-67485295D02*
X154814286Y-67390057D01*
X154814286Y-67390057D02*
X154861905Y-67342438D01*
X154861905Y-67342438D02*
X154957143Y-67294819D01*
X154957143Y-67294819D02*
X155195238Y-67294819D01*
X155195238Y-67294819D02*
X155338095Y-67342438D01*
X155671429Y-67294819D02*
X155909524Y-68294819D01*
X155909524Y-68294819D02*
X156100000Y-67580533D01*
X156100000Y-67580533D02*
X156290476Y-68294819D01*
X156290476Y-68294819D02*
X156528572Y-67294819D01*
X156814286Y-67294819D02*
X157433333Y-67294819D01*
X157433333Y-67294819D02*
X157100000Y-67675771D01*
X157100000Y-67675771D02*
X157242857Y-67675771D01*
X157242857Y-67675771D02*
X157338095Y-67723390D01*
X157338095Y-67723390D02*
X157385714Y-67771009D01*
X157385714Y-67771009D02*
X157433333Y-67866247D01*
X157433333Y-67866247D02*
X157433333Y-68104342D01*
X157433333Y-68104342D02*
X157385714Y-68199580D01*
X157385714Y-68199580D02*
X157338095Y-68247200D01*
X157338095Y-68247200D02*
X157242857Y-68294819D01*
X157242857Y-68294819D02*
X156957143Y-68294819D01*
X156957143Y-68294819D02*
X156861905Y-68247200D01*
X156861905Y-68247200D02*
X156814286Y-68199580D01*
X143659580Y-88666666D02*
X143707200Y-88714285D01*
X143707200Y-88714285D02*
X143754819Y-88857142D01*
X143754819Y-88857142D02*
X143754819Y-88952380D01*
X143754819Y-88952380D02*
X143707200Y-89095237D01*
X143707200Y-89095237D02*
X143611961Y-89190475D01*
X143611961Y-89190475D02*
X143516723Y-89238094D01*
X143516723Y-89238094D02*
X143326247Y-89285713D01*
X143326247Y-89285713D02*
X143183390Y-89285713D01*
X143183390Y-89285713D02*
X142992914Y-89238094D01*
X142992914Y-89238094D02*
X142897676Y-89190475D01*
X142897676Y-89190475D02*
X142802438Y-89095237D01*
X142802438Y-89095237D02*
X142754819Y-88952380D01*
X142754819Y-88952380D02*
X142754819Y-88857142D01*
X142754819Y-88857142D02*
X142802438Y-88714285D01*
X142802438Y-88714285D02*
X142850057Y-88666666D01*
X143183390Y-88095237D02*
X143135771Y-88190475D01*
X143135771Y-88190475D02*
X143088152Y-88238094D01*
X143088152Y-88238094D02*
X142992914Y-88285713D01*
X142992914Y-88285713D02*
X142945295Y-88285713D01*
X142945295Y-88285713D02*
X142850057Y-88238094D01*
X142850057Y-88238094D02*
X142802438Y-88190475D01*
X142802438Y-88190475D02*
X142754819Y-88095237D01*
X142754819Y-88095237D02*
X142754819Y-87904761D01*
X142754819Y-87904761D02*
X142802438Y-87809523D01*
X142802438Y-87809523D02*
X142850057Y-87761904D01*
X142850057Y-87761904D02*
X142945295Y-87714285D01*
X142945295Y-87714285D02*
X142992914Y-87714285D01*
X142992914Y-87714285D02*
X143088152Y-87761904D01*
X143088152Y-87761904D02*
X143135771Y-87809523D01*
X143135771Y-87809523D02*
X143183390Y-87904761D01*
X143183390Y-87904761D02*
X143183390Y-88095237D01*
X143183390Y-88095237D02*
X143231009Y-88190475D01*
X143231009Y-88190475D02*
X143278628Y-88238094D01*
X143278628Y-88238094D02*
X143373866Y-88285713D01*
X143373866Y-88285713D02*
X143564342Y-88285713D01*
X143564342Y-88285713D02*
X143659580Y-88238094D01*
X143659580Y-88238094D02*
X143707200Y-88190475D01*
X143707200Y-88190475D02*
X143754819Y-88095237D01*
X143754819Y-88095237D02*
X143754819Y-87904761D01*
X143754819Y-87904761D02*
X143707200Y-87809523D01*
X143707200Y-87809523D02*
X143659580Y-87761904D01*
X143659580Y-87761904D02*
X143564342Y-87714285D01*
X143564342Y-87714285D02*
X143373866Y-87714285D01*
X143373866Y-87714285D02*
X143278628Y-87761904D01*
X143278628Y-87761904D02*
X143231009Y-87809523D01*
X143231009Y-87809523D02*
X143183390Y-87904761D01*
X167659580Y-89142857D02*
X167707200Y-89190476D01*
X167707200Y-89190476D02*
X167754819Y-89333333D01*
X167754819Y-89333333D02*
X167754819Y-89428571D01*
X167754819Y-89428571D02*
X167707200Y-89571428D01*
X167707200Y-89571428D02*
X167611961Y-89666666D01*
X167611961Y-89666666D02*
X167516723Y-89714285D01*
X167516723Y-89714285D02*
X167326247Y-89761904D01*
X167326247Y-89761904D02*
X167183390Y-89761904D01*
X167183390Y-89761904D02*
X166992914Y-89714285D01*
X166992914Y-89714285D02*
X166897676Y-89666666D01*
X166897676Y-89666666D02*
X166802438Y-89571428D01*
X166802438Y-89571428D02*
X166754819Y-89428571D01*
X166754819Y-89428571D02*
X166754819Y-89333333D01*
X166754819Y-89333333D02*
X166802438Y-89190476D01*
X166802438Y-89190476D02*
X166850057Y-89142857D01*
X167754819Y-88190476D02*
X167754819Y-88761904D01*
X167754819Y-88476190D02*
X166754819Y-88476190D01*
X166754819Y-88476190D02*
X166897676Y-88571428D01*
X166897676Y-88571428D02*
X166992914Y-88666666D01*
X166992914Y-88666666D02*
X167040533Y-88761904D01*
X166754819Y-87571428D02*
X166754819Y-87476190D01*
X166754819Y-87476190D02*
X166802438Y-87380952D01*
X166802438Y-87380952D02*
X166850057Y-87333333D01*
X166850057Y-87333333D02*
X166945295Y-87285714D01*
X166945295Y-87285714D02*
X167135771Y-87238095D01*
X167135771Y-87238095D02*
X167373866Y-87238095D01*
X167373866Y-87238095D02*
X167564342Y-87285714D01*
X167564342Y-87285714D02*
X167659580Y-87333333D01*
X167659580Y-87333333D02*
X167707200Y-87380952D01*
X167707200Y-87380952D02*
X167754819Y-87476190D01*
X167754819Y-87476190D02*
X167754819Y-87571428D01*
X167754819Y-87571428D02*
X167707200Y-87666666D01*
X167707200Y-87666666D02*
X167659580Y-87714285D01*
X167659580Y-87714285D02*
X167564342Y-87761904D01*
X167564342Y-87761904D02*
X167373866Y-87809523D01*
X167373866Y-87809523D02*
X167135771Y-87809523D01*
X167135771Y-87809523D02*
X166945295Y-87761904D01*
X166945295Y-87761904D02*
X166850057Y-87714285D01*
X166850057Y-87714285D02*
X166802438Y-87666666D01*
X166802438Y-87666666D02*
X166754819Y-87571428D01*
X187174819Y-121166666D02*
X186698628Y-121499999D01*
X187174819Y-121738094D02*
X186174819Y-121738094D01*
X186174819Y-121738094D02*
X186174819Y-121357142D01*
X186174819Y-121357142D02*
X186222438Y-121261904D01*
X186222438Y-121261904D02*
X186270057Y-121214285D01*
X186270057Y-121214285D02*
X186365295Y-121166666D01*
X186365295Y-121166666D02*
X186508152Y-121166666D01*
X186508152Y-121166666D02*
X186603390Y-121214285D01*
X186603390Y-121214285D02*
X186651009Y-121261904D01*
X186651009Y-121261904D02*
X186698628Y-121357142D01*
X186698628Y-121357142D02*
X186698628Y-121738094D01*
X186270057Y-120785713D02*
X186222438Y-120738094D01*
X186222438Y-120738094D02*
X186174819Y-120642856D01*
X186174819Y-120642856D02*
X186174819Y-120404761D01*
X186174819Y-120404761D02*
X186222438Y-120309523D01*
X186222438Y-120309523D02*
X186270057Y-120261904D01*
X186270057Y-120261904D02*
X186365295Y-120214285D01*
X186365295Y-120214285D02*
X186460533Y-120214285D01*
X186460533Y-120214285D02*
X186603390Y-120261904D01*
X186603390Y-120261904D02*
X187174819Y-120833332D01*
X187174819Y-120833332D02*
X187174819Y-120214285D01*
X209994819Y-103698333D02*
X210709104Y-103698333D01*
X210709104Y-103698333D02*
X210851961Y-103745952D01*
X210851961Y-103745952D02*
X210947200Y-103841190D01*
X210947200Y-103841190D02*
X210994819Y-103984047D01*
X210994819Y-103984047D02*
X210994819Y-104079285D01*
X210090057Y-103269761D02*
X210042438Y-103222142D01*
X210042438Y-103222142D02*
X209994819Y-103126904D01*
X209994819Y-103126904D02*
X209994819Y-102888809D01*
X209994819Y-102888809D02*
X210042438Y-102793571D01*
X210042438Y-102793571D02*
X210090057Y-102745952D01*
X210090057Y-102745952D02*
X210185295Y-102698333D01*
X210185295Y-102698333D02*
X210280533Y-102698333D01*
X210280533Y-102698333D02*
X210423390Y-102745952D01*
X210423390Y-102745952D02*
X210994819Y-103317380D01*
X210994819Y-103317380D02*
X210994819Y-102698333D01*
X129659580Y-88666666D02*
X129707200Y-88714285D01*
X129707200Y-88714285D02*
X129754819Y-88857142D01*
X129754819Y-88857142D02*
X129754819Y-88952380D01*
X129754819Y-88952380D02*
X129707200Y-89095237D01*
X129707200Y-89095237D02*
X129611961Y-89190475D01*
X129611961Y-89190475D02*
X129516723Y-89238094D01*
X129516723Y-89238094D02*
X129326247Y-89285713D01*
X129326247Y-89285713D02*
X129183390Y-89285713D01*
X129183390Y-89285713D02*
X128992914Y-89238094D01*
X128992914Y-89238094D02*
X128897676Y-89190475D01*
X128897676Y-89190475D02*
X128802438Y-89095237D01*
X128802438Y-89095237D02*
X128754819Y-88952380D01*
X128754819Y-88952380D02*
X128754819Y-88857142D01*
X128754819Y-88857142D02*
X128802438Y-88714285D01*
X128802438Y-88714285D02*
X128850057Y-88666666D01*
X128754819Y-87809523D02*
X128754819Y-87999999D01*
X128754819Y-87999999D02*
X128802438Y-88095237D01*
X128802438Y-88095237D02*
X128850057Y-88142856D01*
X128850057Y-88142856D02*
X128992914Y-88238094D01*
X128992914Y-88238094D02*
X129183390Y-88285713D01*
X129183390Y-88285713D02*
X129564342Y-88285713D01*
X129564342Y-88285713D02*
X129659580Y-88238094D01*
X129659580Y-88238094D02*
X129707200Y-88190475D01*
X129707200Y-88190475D02*
X129754819Y-88095237D01*
X129754819Y-88095237D02*
X129754819Y-87904761D01*
X129754819Y-87904761D02*
X129707200Y-87809523D01*
X129707200Y-87809523D02*
X129659580Y-87761904D01*
X129659580Y-87761904D02*
X129564342Y-87714285D01*
X129564342Y-87714285D02*
X129326247Y-87714285D01*
X129326247Y-87714285D02*
X129231009Y-87761904D01*
X129231009Y-87761904D02*
X129183390Y-87809523D01*
X129183390Y-87809523D02*
X129135771Y-87904761D01*
X129135771Y-87904761D02*
X129135771Y-88095237D01*
X129135771Y-88095237D02*
X129183390Y-88190475D01*
X129183390Y-88190475D02*
X129231009Y-88238094D01*
X129231009Y-88238094D02*
X129326247Y-88285713D01*
X150064819Y-132333333D02*
X150779104Y-132333333D01*
X150779104Y-132333333D02*
X150921961Y-132380952D01*
X150921961Y-132380952D02*
X151017200Y-132476190D01*
X151017200Y-132476190D02*
X151064819Y-132619047D01*
X151064819Y-132619047D02*
X151064819Y-132714285D01*
X151064819Y-131333333D02*
X151064819Y-131904761D01*
X151064819Y-131619047D02*
X150064819Y-131619047D01*
X150064819Y-131619047D02*
X150207676Y-131714285D01*
X150207676Y-131714285D02*
X150302914Y-131809523D01*
X150302914Y-131809523D02*
X150350533Y-131904761D01*
X172833333Y-83824819D02*
X172500000Y-83348628D01*
X172261905Y-83824819D02*
X172261905Y-82824819D01*
X172261905Y-82824819D02*
X172642857Y-82824819D01*
X172642857Y-82824819D02*
X172738095Y-82872438D01*
X172738095Y-82872438D02*
X172785714Y-82920057D01*
X172785714Y-82920057D02*
X172833333Y-83015295D01*
X172833333Y-83015295D02*
X172833333Y-83158152D01*
X172833333Y-83158152D02*
X172785714Y-83253390D01*
X172785714Y-83253390D02*
X172738095Y-83301009D01*
X172738095Y-83301009D02*
X172642857Y-83348628D01*
X172642857Y-83348628D02*
X172261905Y-83348628D01*
X173690476Y-82824819D02*
X173500000Y-82824819D01*
X173500000Y-82824819D02*
X173404762Y-82872438D01*
X173404762Y-82872438D02*
X173357143Y-82920057D01*
X173357143Y-82920057D02*
X173261905Y-83062914D01*
X173261905Y-83062914D02*
X173214286Y-83253390D01*
X173214286Y-83253390D02*
X173214286Y-83634342D01*
X173214286Y-83634342D02*
X173261905Y-83729580D01*
X173261905Y-83729580D02*
X173309524Y-83777200D01*
X173309524Y-83777200D02*
X173404762Y-83824819D01*
X173404762Y-83824819D02*
X173595238Y-83824819D01*
X173595238Y-83824819D02*
X173690476Y-83777200D01*
X173690476Y-83777200D02*
X173738095Y-83729580D01*
X173738095Y-83729580D02*
X173785714Y-83634342D01*
X173785714Y-83634342D02*
X173785714Y-83396247D01*
X173785714Y-83396247D02*
X173738095Y-83301009D01*
X173738095Y-83301009D02*
X173690476Y-83253390D01*
X173690476Y-83253390D02*
X173595238Y-83205771D01*
X173595238Y-83205771D02*
X173404762Y-83205771D01*
X173404762Y-83205771D02*
X173309524Y-83253390D01*
X173309524Y-83253390D02*
X173261905Y-83301009D01*
X173261905Y-83301009D02*
X173214286Y-83396247D01*
X225174819Y-37816666D02*
X224698628Y-38149999D01*
X225174819Y-38388094D02*
X224174819Y-38388094D01*
X224174819Y-38388094D02*
X224174819Y-38007142D01*
X224174819Y-38007142D02*
X224222438Y-37911904D01*
X224222438Y-37911904D02*
X224270057Y-37864285D01*
X224270057Y-37864285D02*
X224365295Y-37816666D01*
X224365295Y-37816666D02*
X224508152Y-37816666D01*
X224508152Y-37816666D02*
X224603390Y-37864285D01*
X224603390Y-37864285D02*
X224651009Y-37911904D01*
X224651009Y-37911904D02*
X224698628Y-38007142D01*
X224698628Y-38007142D02*
X224698628Y-38388094D01*
X224174819Y-36911904D02*
X224174819Y-37388094D01*
X224174819Y-37388094D02*
X224651009Y-37435713D01*
X224651009Y-37435713D02*
X224603390Y-37388094D01*
X224603390Y-37388094D02*
X224555771Y-37292856D01*
X224555771Y-37292856D02*
X224555771Y-37054761D01*
X224555771Y-37054761D02*
X224603390Y-36959523D01*
X224603390Y-36959523D02*
X224651009Y-36911904D01*
X224651009Y-36911904D02*
X224746247Y-36864285D01*
X224746247Y-36864285D02*
X224984342Y-36864285D01*
X224984342Y-36864285D02*
X225079580Y-36911904D01*
X225079580Y-36911904D02*
X225127200Y-36959523D01*
X225127200Y-36959523D02*
X225174819Y-37054761D01*
X225174819Y-37054761D02*
X225174819Y-37292856D01*
X225174819Y-37292856D02*
X225127200Y-37388094D01*
X225127200Y-37388094D02*
X225079580Y-37435713D01*
X238238095Y-22404819D02*
X238238095Y-21404819D01*
X238238095Y-21881009D02*
X238809523Y-21881009D01*
X238809523Y-22404819D02*
X238809523Y-21404819D01*
X239238095Y-21500057D02*
X239285714Y-21452438D01*
X239285714Y-21452438D02*
X239380952Y-21404819D01*
X239380952Y-21404819D02*
X239619047Y-21404819D01*
X239619047Y-21404819D02*
X239714285Y-21452438D01*
X239714285Y-21452438D02*
X239761904Y-21500057D01*
X239761904Y-21500057D02*
X239809523Y-21595295D01*
X239809523Y-21595295D02*
X239809523Y-21690533D01*
X239809523Y-21690533D02*
X239761904Y-21833390D01*
X239761904Y-21833390D02*
X239190476Y-22404819D01*
X239190476Y-22404819D02*
X239809523Y-22404819D01*
X68644761Y-28389819D02*
X68311428Y-27913628D01*
X68073333Y-28389819D02*
X68073333Y-27389819D01*
X68073333Y-27389819D02*
X68454285Y-27389819D01*
X68454285Y-27389819D02*
X68549523Y-27437438D01*
X68549523Y-27437438D02*
X68597142Y-27485057D01*
X68597142Y-27485057D02*
X68644761Y-27580295D01*
X68644761Y-27580295D02*
X68644761Y-27723152D01*
X68644761Y-27723152D02*
X68597142Y-27818390D01*
X68597142Y-27818390D02*
X68549523Y-27866009D01*
X68549523Y-27866009D02*
X68454285Y-27913628D01*
X68454285Y-27913628D02*
X68073333Y-27913628D01*
X68930476Y-27389819D02*
X69263809Y-28389819D01*
X69263809Y-28389819D02*
X69597142Y-27389819D01*
X70454285Y-28389819D02*
X69882857Y-28389819D01*
X70168571Y-28389819D02*
X70168571Y-27389819D01*
X70168571Y-27389819D02*
X70073333Y-27532676D01*
X70073333Y-27532676D02*
X69978095Y-27627914D01*
X69978095Y-27627914D02*
X69882857Y-27675533D01*
X229174819Y-37816666D02*
X228698628Y-38149999D01*
X229174819Y-38388094D02*
X228174819Y-38388094D01*
X228174819Y-38388094D02*
X228174819Y-38007142D01*
X228174819Y-38007142D02*
X228222438Y-37911904D01*
X228222438Y-37911904D02*
X228270057Y-37864285D01*
X228270057Y-37864285D02*
X228365295Y-37816666D01*
X228365295Y-37816666D02*
X228508152Y-37816666D01*
X228508152Y-37816666D02*
X228603390Y-37864285D01*
X228603390Y-37864285D02*
X228651009Y-37911904D01*
X228651009Y-37911904D02*
X228698628Y-38007142D01*
X228698628Y-38007142D02*
X228698628Y-38388094D01*
X228508152Y-36959523D02*
X229174819Y-36959523D01*
X228127200Y-37197618D02*
X228841485Y-37435713D01*
X228841485Y-37435713D02*
X228841485Y-36816666D01*
D13*
%TO.C,J4*%
X140395000Y-146990000D02*
X141725000Y-146990000D01*
X140395000Y-148100000D02*
X140395000Y-146990000D01*
X140395000Y-149560000D02*
X148135000Y-149560000D01*
X140395000Y-158190000D02*
X140395000Y-149560000D01*
X140395000Y-158190000D02*
X148135000Y-158190000D01*
X140515000Y-158190000D02*
X140515000Y-149560000D01*
X140633095Y-158190000D02*
X140633095Y-149560000D01*
X140751190Y-158190000D02*
X140751190Y-149560000D01*
X140869285Y-158190000D02*
X140869285Y-149560000D01*
X140987380Y-158190000D02*
X140987380Y-149560000D01*
X141105475Y-158190000D02*
X141105475Y-149560000D01*
X141223570Y-158190000D02*
X141223570Y-149560000D01*
X141341665Y-158190000D02*
X141341665Y-149560000D01*
X141365000Y-149560000D02*
X141365000Y-149210000D01*
X141459760Y-158190000D02*
X141459760Y-149560000D01*
X141577855Y-158190000D02*
X141577855Y-149560000D01*
X141695950Y-158190000D02*
X141695950Y-149560000D01*
X141814045Y-158190000D02*
X141814045Y-149560000D01*
X141932140Y-158190000D02*
X141932140Y-149560000D01*
X142050235Y-158190000D02*
X142050235Y-149560000D01*
X142085000Y-149560000D02*
X142085000Y-149210000D01*
X142168330Y-158190000D02*
X142168330Y-149560000D01*
X142286425Y-158190000D02*
X142286425Y-149560000D01*
X142404520Y-158190000D02*
X142404520Y-149560000D01*
X142522615Y-158190000D02*
X142522615Y-149560000D01*
X142640710Y-158190000D02*
X142640710Y-149560000D01*
X142758805Y-158190000D02*
X142758805Y-149560000D01*
X142876900Y-158190000D02*
X142876900Y-149560000D01*
X142995000Y-158190000D02*
X142995000Y-149560000D01*
X143905000Y-149560000D02*
X143905000Y-149150000D01*
X144625000Y-149560000D02*
X144625000Y-149150000D01*
X145535000Y-158190000D02*
X145535000Y-149560000D01*
X146445000Y-149560000D02*
X146445000Y-149150000D01*
X147165000Y-149560000D02*
X147165000Y-149150000D01*
X148135000Y-158190000D02*
X148135000Y-149560000D01*
%TO.C,U1*%
X80600000Y-20120000D02*
X92850000Y-20120000D01*
X80600000Y-25880000D02*
X80600000Y-20120000D01*
X92860000Y-20130000D02*
X92860000Y-25870000D01*
X92860000Y-25880000D02*
X80600000Y-25880000D01*
X93140000Y-19840000D02*
X91140000Y-19840000D01*
X93140000Y-19840000D02*
X93140000Y-21450000D01*
%TO.C,SW1*%
X64670000Y-60780000D02*
X65380000Y-60780000D01*
X64670000Y-66300000D02*
X64670000Y-60780000D01*
X64670000Y-66300000D02*
X65320000Y-66300000D01*
X65320000Y-66880000D02*
X65320000Y-66300000D01*
X67330000Y-60780000D02*
X66620000Y-60780000D01*
X67330000Y-66300000D02*
X66620000Y-66300000D01*
X67330000Y-66300000D02*
X67330000Y-60780000D01*
%TO.C,R3*%
X230000000Y-32340000D02*
X230000000Y-33030000D01*
X230000000Y-42960000D02*
X230000000Y-42270000D01*
X231720000Y-33030000D02*
X228280000Y-33030000D01*
X228280000Y-42270000D01*
X231720000Y-42270000D01*
X231720000Y-33030000D01*
%TO.C,C2*%
X195240000Y-89629437D02*
X195240000Y-92260000D01*
X195240000Y-92260000D02*
X195940000Y-92260000D01*
X195940000Y-88929437D02*
X195240000Y-89629437D01*
X198060000Y-88929437D02*
X198760000Y-89629437D01*
X198435000Y-88125000D02*
X198435000Y-88500000D01*
X198622500Y-88312500D02*
X198247500Y-88312500D01*
X198760000Y-89629437D02*
X198760000Y-92260000D01*
X198760000Y-92260000D02*
X198060000Y-92260000D01*
%TO.C,J5*%
X60620000Y-70980000D02*
X60620000Y-80170000D01*
X63350000Y-70980000D02*
X60620000Y-70980000D01*
X63350000Y-80170000D02*
X60620000Y-80170000D01*
X66950000Y-70980000D02*
X66050000Y-70980000D01*
X66950000Y-80170000D02*
X66050000Y-80170000D01*
X70030000Y-71100000D02*
X70030000Y-80050000D01*
%TO.C,D1*%
X224300000Y-27500000D02*
X224300000Y-22500000D01*
X229700000Y-22500000D02*
X229700000Y-27500000D01*
X229830000Y-22240000D02*
X229500000Y-22000000D01*
X229830000Y-21760000D01*
X229830000Y-22240000D01*
G36*
X229830000Y-22240000D02*
G01*
X229500000Y-22000000D01*
X229830000Y-21760000D01*
X229830000Y-22240000D01*
G37*
%TO.C,C9*%
X161240000Y-86740000D02*
X161940000Y-86740000D01*
X161240000Y-89370563D02*
X161240000Y-86740000D01*
X161377500Y-90687500D02*
X161752500Y-90687500D01*
X161565000Y-90875000D02*
X161565000Y-90500000D01*
X161940000Y-90070563D02*
X161240000Y-89370563D01*
X164060000Y-90070563D02*
X164760000Y-89370563D01*
X164760000Y-86740000D02*
X164060000Y-86740000D01*
X164760000Y-89370563D02*
X164760000Y-86740000D01*
%TO.C,U2*%
X94090000Y-22130000D02*
X94090000Y-66410000D01*
X94090000Y-66410000D02*
X216370000Y-66410000D01*
D12*
X102253000Y-29723000D02*
X102253000Y-63251000D01*
X103015000Y-28961000D02*
X103015000Y-29723000D01*
X103015000Y-29723000D02*
X102253000Y-29723000D01*
X103015000Y-63251000D02*
X102253000Y-63251000D01*
X103015000Y-64013000D02*
X103015000Y-63251000D01*
X103015000Y-64013000D02*
X207155000Y-64013000D01*
X104031000Y-30231000D02*
X104285000Y-30485000D01*
X104031000Y-62743000D02*
X104285000Y-62997000D01*
X104285000Y-29977000D02*
X104031000Y-30231000D01*
X104285000Y-30485000D02*
X205885000Y-30485000D01*
X104285000Y-62489000D02*
X104031000Y-62743000D01*
X104285000Y-62997000D02*
X205885000Y-62997000D01*
X105555000Y-35311000D02*
X106317000Y-34549000D01*
X105555000Y-57663000D02*
X105555000Y-35311000D01*
X106317000Y-34549000D02*
X203853000Y-34549000D01*
X106317000Y-58425000D02*
X105555000Y-57663000D01*
D13*
X171230000Y-21770000D02*
X173230000Y-21770000D01*
D12*
X203853000Y-34549000D02*
X204615000Y-35311000D01*
X203853000Y-58425000D02*
X106317000Y-58425000D01*
X204615000Y-35311000D02*
X204615000Y-57663000D01*
X204615000Y-57663000D02*
X203853000Y-58425000D01*
X205885000Y-29977000D02*
X104285000Y-29977000D01*
X205885000Y-29977000D02*
X206139000Y-30231000D01*
X205885000Y-62489000D02*
X104285000Y-62489000D01*
X205885000Y-62997000D02*
X206139000Y-62743000D01*
X206139000Y-30231000D02*
X205885000Y-30485000D01*
X206139000Y-62743000D02*
X205885000Y-62489000D01*
X207155000Y-28961000D02*
X103015000Y-28961000D01*
X207155000Y-28961000D02*
X207155000Y-29723000D01*
X207155000Y-29723000D02*
X207917000Y-29723000D01*
X207155000Y-63251000D02*
X207155000Y-64013000D01*
X207917000Y-63251000D02*
X207155000Y-63251000D01*
X207917000Y-63251000D02*
X207917000Y-29723000D01*
D13*
X216370000Y-22130000D02*
X94090000Y-22130000D01*
X216370000Y-22130000D02*
X216370000Y-66410000D01*
%TO.C,R8*%
X79000000Y-83960000D02*
X79000000Y-84730000D01*
X79000000Y-92040000D02*
X79000000Y-91270000D01*
X80370000Y-84730000D02*
X77630000Y-84730000D01*
X77630000Y-91270000D01*
X80370000Y-91270000D01*
X80370000Y-84730000D01*
%TO.C,Y2*%
X163015000Y-95400000D02*
X164385000Y-94730000D01*
X163015000Y-96600000D02*
X164385000Y-97270000D01*
X164385000Y-94730000D02*
X165195000Y-94730000D01*
X164385000Y-97270000D02*
X165195000Y-97270000D01*
X163015000Y-94240000D02*
X151995000Y-94240000D01*
X151995000Y-97760000D01*
X163015000Y-97760000D01*
X163015000Y-94240000D01*
%TO.C,SW2*%
X201850000Y-68850000D02*
X214150000Y-68850000D01*
X201850000Y-70970000D02*
X201850000Y-68850000D01*
X201850000Y-75970000D02*
X201850000Y-74030000D01*
X201850000Y-81150000D02*
X201850000Y-79030000D01*
X214150000Y-68850000D02*
X214150000Y-70970000D01*
X214150000Y-74030000D02*
X214150000Y-75970000D01*
X214150000Y-79030000D02*
X214150000Y-81150000D01*
X214150000Y-81150000D02*
X201850000Y-81150000D01*
X212679050Y-75040000D02*
G75*
G02*
X203520950Y-75040000I-4579050J0D01*
G01*
X203520950Y-75040000D02*
G75*
G02*
X212679050Y-75040000I4579050J0D01*
G01*
%TO.C,U3*%
X176890000Y-92890000D02*
X176890000Y-93590000D01*
X176890000Y-107110000D02*
X176890000Y-106410000D01*
X177590000Y-92890000D02*
X176890000Y-92890000D01*
X177590000Y-107110000D02*
X176890000Y-107110000D01*
X190410000Y-92890000D02*
X191110000Y-92890000D01*
X190410000Y-107110000D02*
X191110000Y-107110000D01*
X191110000Y-92890000D02*
X191110000Y-93590000D01*
X191110000Y-107110000D02*
X191110000Y-106410000D01*
X192040000Y-106880000D02*
X191360000Y-106880000D01*
X191700000Y-106410000D01*
X192040000Y-106880000D01*
G36*
X192040000Y-106880000D02*
G01*
X191360000Y-106880000D01*
X191700000Y-106410000D01*
X192040000Y-106880000D01*
G37*
%TO.C,R7*%
X74000000Y-83960000D02*
X74000000Y-84730000D01*
X74000000Y-92040000D02*
X74000000Y-91270000D01*
X75370000Y-84730000D02*
X72630000Y-84730000D01*
X72630000Y-91270000D01*
X75370000Y-91270000D01*
X75370000Y-84730000D01*
%TO.C,J3*%
X201690000Y-101965000D02*
X201690000Y-100665000D01*
X201690000Y-103965000D02*
X201690000Y-102985000D01*
X201690000Y-105965000D02*
X201690000Y-104985000D01*
X201690000Y-106985000D02*
X200610000Y-106985000D01*
X201690000Y-107285000D02*
X201690000Y-106985000D01*
X203310000Y-100665000D02*
X201690000Y-100665000D01*
X203310000Y-100965000D02*
X203310000Y-100665000D01*
X203310000Y-102965000D02*
X203310000Y-101985000D01*
X203310000Y-104965000D02*
X203310000Y-103985000D01*
X203310000Y-107285000D02*
X201690000Y-107285000D01*
X203310000Y-107285000D02*
X203310000Y-105985000D01*
%TO.C,C1*%
X202240000Y-89629437D02*
X202240000Y-92260000D01*
X202240000Y-92260000D02*
X202940000Y-92260000D01*
X202940000Y-88929437D02*
X202240000Y-89629437D01*
X205060000Y-88929437D02*
X205760000Y-89629437D01*
X205435000Y-88125000D02*
X205435000Y-88500000D01*
X205622500Y-88312500D02*
X205247500Y-88312500D01*
X205760000Y-89629437D02*
X205760000Y-92260000D01*
X205760000Y-92260000D02*
X205060000Y-92260000D01*
%TO.C,C7*%
X137240000Y-86740000D02*
X137940000Y-86740000D01*
X137240000Y-89370563D02*
X137240000Y-86740000D01*
X137377500Y-90687500D02*
X137752500Y-90687500D01*
X137565000Y-90875000D02*
X137565000Y-90500000D01*
X137940000Y-90070563D02*
X137240000Y-89370563D01*
X140060000Y-90070563D02*
X140760000Y-89370563D01*
X140760000Y-86740000D02*
X140060000Y-86740000D01*
X140760000Y-89370563D02*
X140760000Y-86740000D01*
%TO.C,SW3*%
X149850000Y-68850000D02*
X162150000Y-68850000D01*
X149850000Y-70970000D02*
X149850000Y-68850000D01*
X149850000Y-75970000D02*
X149850000Y-74030000D01*
X149850000Y-81150000D02*
X149850000Y-79030000D01*
X162150000Y-68850000D02*
X162150000Y-70970000D01*
X162150000Y-74030000D02*
X162150000Y-75970000D01*
X162150000Y-79030000D02*
X162150000Y-81150000D01*
X162150000Y-81150000D02*
X149850000Y-81150000D01*
X160679050Y-75040000D02*
G75*
G02*
X151520950Y-75040000I-4579050J0D01*
G01*
X151520950Y-75040000D02*
G75*
G02*
X160679050Y-75040000I4579050J0D01*
G01*
%TO.C,C8*%
X144240000Y-86740000D02*
X144940000Y-86740000D01*
X144240000Y-89370563D02*
X144240000Y-86740000D01*
X144377500Y-90687500D02*
X144752500Y-90687500D01*
X144565000Y-90875000D02*
X144565000Y-90500000D01*
X144940000Y-90070563D02*
X144240000Y-89370563D01*
X147060000Y-90070563D02*
X147760000Y-89370563D01*
X147760000Y-86740000D02*
X147060000Y-86740000D01*
X147760000Y-89370563D02*
X147760000Y-86740000D01*
%TO.C,C10*%
X168240000Y-86740000D02*
X168940000Y-86740000D01*
X168240000Y-89370563D02*
X168240000Y-86740000D01*
X168377500Y-90687500D02*
X168752500Y-90687500D01*
X168565000Y-90875000D02*
X168565000Y-90500000D01*
X168940000Y-90070563D02*
X168240000Y-89370563D01*
X171060000Y-90070563D02*
X171760000Y-89370563D01*
X171760000Y-86740000D02*
X171060000Y-86740000D01*
X171760000Y-89370563D02*
X171760000Y-86740000D01*
%TO.C,R2*%
X184000000Y-115690000D02*
X184000000Y-116380000D01*
X184000000Y-126310000D02*
X184000000Y-125620000D01*
X185720000Y-116380000D02*
X182280000Y-116380000D01*
X182280000Y-125620000D01*
X185720000Y-125620000D01*
X185720000Y-116380000D01*
%TO.C,J2*%
X214270000Y-101460000D02*
X214905000Y-101460000D01*
X214270000Y-102095000D02*
X214270000Y-101460000D01*
%TO.C,C6*%
X130240000Y-86740000D02*
X130940000Y-86740000D01*
X130240000Y-89370563D02*
X130240000Y-86740000D01*
X130377500Y-90687500D02*
X130752500Y-90687500D01*
X130565000Y-90875000D02*
X130565000Y-90500000D01*
X130940000Y-90070563D02*
X130240000Y-89370563D01*
X133060000Y-90070563D02*
X133760000Y-89370563D01*
X133760000Y-86740000D02*
X133060000Y-86740000D01*
X133760000Y-89370563D02*
X133760000Y-86740000D01*
%TO.C,J1*%
X141390000Y-131255000D02*
X141390000Y-131589970D01*
X141390000Y-132410030D02*
X141390000Y-132745000D01*
X148265000Y-131255000D02*
X141390000Y-131255000D01*
X148265000Y-131255000D02*
X148265000Y-131314435D01*
X148265000Y-132685565D02*
X148265000Y-132745000D01*
X148265000Y-132745000D02*
X141390000Y-132745000D01*
X149000000Y-131255000D02*
X149735000Y-131255000D01*
X149735000Y-131255000D02*
X149735000Y-132000000D01*
%TO.C,R6*%
X168960000Y-81000000D02*
X169730000Y-81000000D01*
X177040000Y-81000000D02*
X176270000Y-81000000D01*
X176270000Y-82370000D02*
X169730000Y-82370000D01*
X169730000Y-79630000D01*
X176270000Y-79630000D01*
X176270000Y-82370000D01*
%TO.C,R5*%
X222000000Y-32340000D02*
X222000000Y-33030000D01*
X222000000Y-42960000D02*
X222000000Y-42270000D01*
X223720000Y-33030000D02*
X220280000Y-33030000D01*
X220280000Y-42270000D01*
X223720000Y-42270000D01*
X223720000Y-33030000D01*
%TO.C,RV1*%
X65015000Y-29455000D02*
X66535000Y-29455000D01*
X65015000Y-30455000D02*
X65775000Y-30455000D01*
X65015000Y-31455000D02*
X65015000Y-29455000D01*
X66535000Y-29075000D02*
X69783000Y-29075000D01*
X66535000Y-29455000D02*
X66535000Y-31455000D01*
X66535000Y-31455000D02*
X65015000Y-31455000D01*
X66535000Y-32323000D02*
X66535000Y-29075000D01*
X66535000Y-36005000D02*
X66535000Y-32757000D01*
X69783000Y-36005000D02*
X66535000Y-36005000D01*
X70217000Y-29075000D02*
X73465000Y-29075000D01*
X73465000Y-29075000D02*
X73465000Y-36005000D01*
X73465000Y-36005000D02*
X70217000Y-36005000D01*
%TO.C,R4*%
X226000000Y-32340000D02*
X226000000Y-33030000D01*
X226000000Y-42960000D02*
X226000000Y-42270000D01*
X227720000Y-33030000D02*
X224280000Y-33030000D01*
X224280000Y-42270000D01*
X227720000Y-42270000D01*
X227720000Y-33030000D01*
%TD*%
M02*
