%TF.GenerationSoftware,KiCad,Pcbnew,9.0.4*%
%TF.CreationDate,2025-12-18T16:12:58-05:00*%
%TF.ProjectId,ECET230 Smart Plant Monitor,45434554-3233-4302-9053-6d6172742050,rev?*%
%TF.SameCoordinates,Original*%
%TF.FileFunction,Paste,Top*%
%TF.FilePolarity,Positive*%
%FSLAX46Y46*%
G04 Gerber Fmt 4.6, Leading zero omitted, Abs format (unit mm)*
G04 Created by KiCad (PCBNEW 9.0.4) date 2025-12-18 16:12:58*
%MOMM*%
%LPD*%
G01*
G04 APERTURE LIST*
G04 Aperture macros list*
%AMRoundRect*
0 Rectangle with rounded corners*
0 $1 Rounding radius*
0 $2 $3 $4 $5 $6 $7 $8 $9 X,Y pos of 4 corners*
0 Add a 4 corners polygon primitive as box body*
4,1,4,$2,$3,$4,$5,$6,$7,$8,$9,$2,$3,0*
0 Add four circle primitives for the rounded corners*
1,1,$1+$1,$2,$3*
1,1,$1+$1,$4,$5*
1,1,$1+$1,$6,$7*
1,1,$1+$1,$8,$9*
0 Add four rect primitives between the rounded corners*
20,1,$1+$1,$2,$3,$4,$5,0*
20,1,$1+$1,$4,$5,$6,$7,0*
20,1,$1+$1,$6,$7,$8,$9,0*
20,1,$1+$1,$8,$9,$2,$3,0*%
G04 Aperture macros list end*
%ADD10RoundRect,0.190000X0.190000X-0.610000X0.190000X0.610000X-0.190000X0.610000X-0.190000X-0.610000X0*%
%ADD11R,1.600000X2.200000*%
%ADD12R,1.100000X2.000000*%
%ADD13RoundRect,0.075000X0.662500X0.075000X-0.662500X0.075000X-0.662500X-0.075000X0.662500X-0.075000X0*%
%ADD14RoundRect,0.075000X0.075000X0.662500X-0.075000X0.662500X-0.075000X-0.662500X0.075000X-0.662500X0*%
%ADD15R,1.950000X0.500000*%
G04 APERTURE END LIST*
D10*
%TO.C,SW1*%
X66000000Y-66080000D03*
X66000000Y-61000000D03*
%TD*%
D11*
%TO.C,C2*%
X197000000Y-89000000D03*
X197000000Y-92000000D03*
%TD*%
D12*
%TO.C,D1*%
X228700000Y-22600000D03*
X227000000Y-22600000D03*
X225300000Y-22600000D03*
X225300000Y-27400000D03*
X227000000Y-27400000D03*
X228700000Y-27400000D03*
%TD*%
D11*
%TO.C,C9*%
X163000000Y-90000000D03*
X163000000Y-87000000D03*
%TD*%
D13*
%TO.C,U3*%
X191662500Y-106000000D03*
X191662500Y-105500000D03*
X191662500Y-105000000D03*
X191662500Y-104500000D03*
X191662500Y-104000000D03*
X191662500Y-103500000D03*
X191662500Y-103000000D03*
X191662500Y-102500000D03*
X191662500Y-102000000D03*
X191662500Y-101500000D03*
X191662500Y-101000000D03*
X191662500Y-100500000D03*
X191662500Y-100000000D03*
X191662500Y-99500000D03*
X191662500Y-99000000D03*
X191662500Y-98500000D03*
X191662500Y-98000000D03*
X191662500Y-97500000D03*
X191662500Y-97000000D03*
X191662500Y-96500000D03*
X191662500Y-96000000D03*
X191662500Y-95500000D03*
X191662500Y-95000000D03*
X191662500Y-94500000D03*
X191662500Y-94000000D03*
D14*
X190000000Y-92337500D03*
X189500000Y-92337500D03*
X189000000Y-92337500D03*
X188500000Y-92337500D03*
X188000000Y-92337500D03*
X187500000Y-92337500D03*
X187000000Y-92337500D03*
X186500000Y-92337500D03*
X186000000Y-92337500D03*
X185500000Y-92337500D03*
X185000000Y-92337500D03*
X184500000Y-92337500D03*
X184000000Y-92337500D03*
X183500000Y-92337500D03*
X183000000Y-92337500D03*
X182500000Y-92337500D03*
X182000000Y-92337500D03*
X181500000Y-92337500D03*
X181000000Y-92337500D03*
X180500000Y-92337500D03*
X180000000Y-92337500D03*
X179500000Y-92337500D03*
X179000000Y-92337500D03*
X178500000Y-92337500D03*
X178000000Y-92337500D03*
D13*
X176337500Y-94000000D03*
X176337500Y-94500000D03*
X176337500Y-95000000D03*
X176337500Y-95500000D03*
X176337500Y-96000000D03*
X176337500Y-96500000D03*
X176337500Y-97000000D03*
X176337500Y-97500000D03*
X176337500Y-98000000D03*
X176337500Y-98500000D03*
X176337500Y-99000000D03*
X176337500Y-99500000D03*
X176337500Y-100000000D03*
X176337500Y-100500000D03*
X176337500Y-101000000D03*
X176337500Y-101500000D03*
X176337500Y-102000000D03*
X176337500Y-102500000D03*
X176337500Y-103000000D03*
X176337500Y-103500000D03*
X176337500Y-104000000D03*
X176337500Y-104500000D03*
X176337500Y-105000000D03*
X176337500Y-105500000D03*
X176337500Y-106000000D03*
D14*
X178000000Y-107662500D03*
X178500000Y-107662500D03*
X179000000Y-107662500D03*
X179500000Y-107662500D03*
X180000000Y-107662500D03*
X180500000Y-107662500D03*
X181000000Y-107662500D03*
X181500000Y-107662500D03*
X182000000Y-107662500D03*
X182500000Y-107662500D03*
X183000000Y-107662500D03*
X183500000Y-107662500D03*
X184000000Y-107662500D03*
X184500000Y-107662500D03*
X185000000Y-107662500D03*
X185500000Y-107662500D03*
X186000000Y-107662500D03*
X186500000Y-107662500D03*
X187000000Y-107662500D03*
X187500000Y-107662500D03*
X188000000Y-107662500D03*
X188500000Y-107662500D03*
X189000000Y-107662500D03*
X189500000Y-107662500D03*
X190000000Y-107662500D03*
%TD*%
D15*
%TO.C,J3*%
X201525000Y-106475000D03*
X203475000Y-105475000D03*
X201525000Y-104475000D03*
X203475000Y-103475000D03*
X201525000Y-102475000D03*
X203475000Y-101475000D03*
%TD*%
D11*
%TO.C,C1*%
X204000000Y-89000000D03*
X204000000Y-92000000D03*
%TD*%
%TO.C,C7*%
X139000000Y-90000000D03*
X139000000Y-87000000D03*
%TD*%
%TO.C,C8*%
X146000000Y-90000000D03*
X146000000Y-87000000D03*
%TD*%
%TO.C,C10*%
X170000000Y-90000000D03*
X170000000Y-87000000D03*
%TD*%
%TO.C,C6*%
X132000000Y-90000000D03*
X132000000Y-87000000D03*
%TD*%
M02*
